<?xml version="1.0" encoding="UTF-8"?>
<!DOCTYPE svg PUBLIC "-//W3C//DTD SVG 1.1//EN" "http://www.w3.org/Graphics/SVG/1.1/DTD/svg11.dtd">
<!-- Creator: CorelDRAW X7 -->
<svg xmlns="http://www.w3.org/2000/svg" xml:space="preserve" width="162.56mm" height="91.4398mm" version="1.1" style="shape-rendering:geometricPrecision; text-rendering:geometricPrecision; image-rendering:optimizeQuality; fill-rule:evenodd; clip-rule:evenodd"
viewBox="0 0 16256 9144"
 xmlns:xlink="http://www.w3.org/1999/xlink">
 <defs>
  <style type="text/css">
   <![CDATA[
    .str0 {stroke:#393185;stroke-width:25}
    .str1 {stroke:#FEFEFE;stroke-width:20}
    .fil0 {fill:none}
    .fil6 {fill:none}
    .fil1 {fill:#FEFEFE}
    .fil7 {fill:#FEFEFE}
    .fil3 {fill:#E31E24}
    .fil4 {fill:#FFED00;fill-rule:nonzero}
    .fil9 {fill:#393185;fill-rule:nonzero}
    .fil8 {fill:#393185;fill-rule:nonzero}
    .fil2 {fill:#D9DADA;fill-opacity:0.501961}
    .fil5 {fill:#FEFEFE;fill-rule:nonzero}
   ]]>
  </style>
    <clipPath id="id0">
     <path d="M8128 0l8128 0 0 4572 -8128 0 0 -4572z"/>
    </clipPath>
     <clipPath id="id1">
      <path d="M16256 59l0 4457 -3244 0 0 -4457 3244 0z"/>
     </clipPath>
     <clipPath id="id2">
      <path d="M8128 0l8128 0 0 4572 -8128 0 0 -4572z"/>
     </clipPath>
     <clipPath id="id3">
      <path d="M9696 1204l2586 0 0 3300 -2586 0 0 -3300z"/>
     </clipPath>
     <clipPath id="id4">
      <path d="M8128 0l8128 0 0 4572 -8128 0 0 -4572z"/>
     </clipPath>
     <clipPath id="id5">
      <path d="M12498 185l1460 0 0 4352 -1460 0 0 -4352z"/>
     </clipPath>
     <clipPath id="id6">
      <path d="M8128 0l8128 0 0 4572 -8128 0 0 -4572z"/>
     </clipPath>
     <clipPath id="id7">
      <path d="M8416 971l1025 0 0 3376 -1025 0 0 -3376z"/>
     </clipPath>
     <clipPath id="id8">
      <path d="M8128 0l8128 0 0 4572 -8128 0 0 -4572z"/>
     </clipPath>
    <clipPath id="id9">
     <path d="M8128 4572l8128 0 0 4572 -8128 0 0 -4572z"/>
    </clipPath>
      <clipPath id="id10">
       <path d="M8128 4572l6326 0 0 4572 -6326 0 0 -4572z"/>
      </clipPath>
      <clipPath id="id11">
       <path d="M8128 4572l8128 0 0 4572 -8128 0 0 -4572z"/>
      </clipPath>
     <clipPath id="id12">
      <path d="M16011 9144l-4706 0 0 -2887 4706 0 0 2887z"/>
     </clipPath>
     <clipPath id="id13">
      <path d="M8128 4572l8128 0 0 4572 -8128 0 0 -4572z"/>
     </clipPath>
    <clipPath id="id14">
     <path d="M0 4572l8128 0 0 4572 -8128 0 0 -4572z"/>
    </clipPath>
     <clipPath id="id15">
      <path d="M4426 4598l3026 0 0 2330 -3026 0 0 -2330z"/>
     </clipPath>
     <clipPath id="id16">
      <path d="M0 4572l8128 0 0 4572 -8128 0 0 -4572z"/>
     </clipPath>
     <clipPath id="id17">
      <path d="M7415 9144l-2953 0 0 -2351 2953 0 0 2351z"/>
     </clipPath>
     <clipPath id="id18">
      <path d="M0 4572l8128 0 0 4572 -8128 0 0 -4572z"/>
     </clipPath>
     <clipPath id="id19">
      <path d="M593 6952l2835 0 0 2169 -2835 0 0 -2169z"/>
     </clipPath>
     <clipPath id="id20">
      <path d="M0 4572l8128 0 0 4572 -8128 0 0 -4572z"/>
     </clipPath>
     <clipPath id="id21">
      <path d="M610 4660l2912 0 0 2269 -2912 0 0 -2269z"/>
     </clipPath>
     <clipPath id="id22">
      <path d="M0 4572l8128 0 0 4572 -8128 0 0 -4572z"/>
     </clipPath>
    <clipPath id="id23">
     <path d="M0 4572l8128 0 0 -4572 -8128 0 0 4572z"/>
    </clipPath>
     <clipPath id="id24">
      <path d="M5 4572l4776 0 0 -4572 -4776 0 0 4572z"/>
     </clipPath>
     <clipPath id="id25">
      <path d="M0 4572l8128 0 0 -4572 -8128 0 0 4572z"/>
     </clipPath>
     <clipPath id="id26">
      <path d="M4608 119l1716 0 0 1662 -1716 0 0 -1662z"/>
     </clipPath>
     <clipPath id="id27">
      <path d="M0 4572l8128 0 0 -4572 -8128 0 0 4572z"/>
     </clipPath>
     <clipPath id="id28">
      <path d="M6453 252l1670 0 0 1435 -1670 0 0 -1435z"/>
     </clipPath>
     <clipPath id="id29">
      <path d="M0 4572l8128 0 0 -4572 -8128 0 0 4572z"/>
     </clipPath>
     <clipPath id="id30">
      <path d="M5103 1845l2424 0 0 2385 -2424 0 0 -2385z"/>
     </clipPath>
     <clipPath id="id31">
      <path d="M0 4572l8128 0 0 -4572 -8128 0 0 4572z"/>
     </clipPath>
 </defs>
 <g id="Layer_x0020_1">
  <metadata id="CorelCorpID_0Corel-Layer"/>
  <g id="_667322848">
   <g>
   </g>
   <g style="clip-path:url(#id0)">
    <g id="_667073472">
    </g>
    <g style="clip-path:url(#id1)">
     <image x="13012" y="59" width="4457" height="4457" xlink:href="Moh1_Images\Moh1_ImgID1.png"/>
    </g>
    <g style="clip-path:url(#id2)">
    </g>
    <g style="clip-path:url(#id3)">
     <image x="9696" y="1204" width="2586" height="3301" xlink:href="Moh1_Images\Moh1_ImgID2.png"/>
    </g>
    <g style="clip-path:url(#id4)">
    </g>
    <g style="clip-path:url(#id5)">
     <image x="12498" y="185" width="1460" height="4352" xlink:href="Moh1_Images\Moh1_ImgID3.png"/>
    </g>
    <g style="clip-path:url(#id6)">
    </g>
    <g style="clip-path:url(#id7)">
     <image x="8416" y="971" width="1025" height="3375" xlink:href="Moh1_Images\Moh1_ImgID4.png"/>
    </g>
    <g style="clip-path:url(#id8)">
    </g>
   </g>
   <polygon class="fil0" points="8128,0 16256,0 16256,4572 8128,4572 "/>
   <g>
   </g>
   <g style="clip-path:url(#id9)">
    <g>
     <g id="_666992800">
     </g>
     <g style="clip-path:url(#id10)">
      <image transform="matrix(-0.5 -0 -0 -0.5 14454.1 9971.61)" x="0" y="0" width="12700" height="10888" xlink:href="Moh1_Images\Moh1_ImgID5.png"/>
     </g>
     <g style="clip-path:url(#id11)">
      <polygon class="fil1" points="14208,9632 10636,9632 9735,8478 10636,7661 14208,7661 "/>
     </g>
    </g>
    <g style="clip-path:url(#id12)">
     <image transform="matrix(0.471143 -0.110378 0.110378 0.471143 11305 7214.23)" x="0" y="0" width="8670" height="5631" xlink:href="Moh1_Images\Moh1_ImgID6.png"/>
    </g>
    <g style="clip-path:url(#id13)">
    </g>
   </g>
   <polygon class="fil0" points="8128,4572 16256,4572 16256,9144 8128,9144 "/>
   <g>
   </g>
   <g style="clip-path:url(#id14)">
    <g>
    </g>
    <g style="clip-path:url(#id15)">
     <image transform="matrix(8.40994E-015 -0.316836 0.316836 8.40994E-015 4426.07 6927.55)" x="0" y="0" width="7352" height="9551" xlink:href="Moh1_Images\Moh1_ImgID7.png"/>
    </g>
    <g style="clip-path:url(#id16)">
    </g>
    <g style="clip-path:url(#id17)">
     <image x="4462" y="6793" width="2953" height="2388" xlink:href="Moh1_Images\Moh1_ImgID8.png"/>
    </g>
    <g style="clip-path:url(#id18)">
    </g>
    <g style="clip-path:url(#id19)">
     <image x="593" y="6952" width="2835" height="2169" xlink:href="Moh1_Images\Moh1_ImgID9.png"/>
    </g>
    <g style="clip-path:url(#id20)">
    </g>
    <g style="clip-path:url(#id21)">
     <image x="610" y="4660" width="2912" height="2269" xlink:href="Moh1_Images\Moh1_ImgID10.png"/>
    </g>
    <g style="clip-path:url(#id22)">
    </g>
   </g>
   <polygon class="fil0" points="0,4572 8128,4572 8128,9144 0,9144 "/>
   <g>
   </g>
   <g style="clip-path:url(#id23)">
    <g>
    </g>
    <g style="clip-path:url(#id24)">
     <image x="5" y="-102" width="4776" height="4776" xlink:href="Moh1_Images\Moh1_ImgID11.png"/>
    </g>
    <g style="clip-path:url(#id25)">
    </g>
    <g style="clip-path:url(#id26)">
     <image x="4608" y="119" width="1715" height="1662" xlink:href="Moh1_Images\Moh1_ImgID12.png"/>
    </g>
    <g style="clip-path:url(#id27)">
    </g>
    <g style="clip-path:url(#id28)">
     <image x="6453" y="252" width="1670" height="1435" xlink:href="Moh1_Images\Moh1_ImgID13.png"/>
    </g>
    <g style="clip-path:url(#id29)">
    </g>
    <g style="clip-path:url(#id30)">
     <image x="5103" y="1845" width="2424" height="2385" xlink:href="Moh1_Images\Moh1_ImgID14.png"/>
    </g>
    <g style="clip-path:url(#id31)">
    </g>
   </g>
   <polygon class="fil0" points="0,4572 8128,4572 8128,0 0,0 "/>
   <path class="fil2" d="M5712 3672l4935 0c62,0 112,51 112,112l0 1608c0,62 -50,112 -112,112l-4935 0c-61,0 -112,-50 -112,-112l0 -1608c0,-61 51,-112 112,-112z"/>
   <g>
    <path class="fil3 str0" d="M5956 3808l4464 0c77,0 140,62 140,139l0 496c0,77 -63,140 -140,140l-4464 0c-76,0 -139,-63 -139,-140l0 -496c0,-77 63,-139 139,-139z"/>
    <path class="fil4" d="M6106 4015c2,0 4,1 9,2 4,1 7,1 10,1 4,0 11,-1 20,-3 27,60 64,136 112,229l28 -55c33,-63 61,-121 84,-174 1,0 2,1 3,1 1,0 2,0 2,1 17,0 29,-1 37,-2 5,45 13,121 26,227 2,12 4,29 7,50 3,22 5,33 5,34 0,2 1,5 2,10 0,5 1,8 1,10 -4,0 -10,0 -19,-1 -9,-1 -16,-1 -21,-1 -4,0 -10,0 -19,1 -8,1 -15,1 -20,1 -1,-32 -4,-68 -8,-108 -4,-39 -8,-78 -12,-115 -54,111 -90,185 -107,223l-19 0 -37 -77c-10,-20 -22,-46 -38,-78 -16,-32 -26,-53 -31,-62 -4,34 -8,62 -10,86 -2,20 -3,38 -4,54 -2,19 -4,35 -4,48 -1,3 -1,8 -1,14 0,7 -1,12 -1,15 -7,-1 -15,-2 -23,-2 -7,0 -15,1 -22,2 0,-6 1,-12 4,-18 1,-8 4,-22 7,-42 3,-20 5,-30 5,-31 5,-30 10,-61 14,-95l20 -145zm694 295c-36,30 -80,45 -133,45 -56,0 -100,-16 -132,-48 -32,-31 -48,-72 -48,-124 0,-54 19,-97 58,-130 36,-30 80,-45 133,-45 44,0 82,11 112,33 26,18 43,39 52,63 10,23 15,49 15,76 0,25 -5,49 -14,72 -10,22 -25,42 -43,58zm-44 -39c14,-26 21,-59 21,-100 0,-22 -4,-43 -11,-64 -7,-21 -18,-37 -34,-51 -15,-13 -34,-19 -57,-19 -21,0 -40,5 -55,16 -15,11 -26,24 -34,40 -12,26 -18,60 -18,104 0,22 3,43 10,63 7,19 18,35 34,48 15,12 34,18 57,18 37,0 66,-18 87,-55zm194 -253c8,0 21,-1 40,-3 -1,8 -1,19 -2,34 -1,15 -2,27 -2,34l0 21 0 44c11,0 24,1 40,1 15,1 26,1 34,1 9,0 21,0 36,-1 15,0 27,-1 38,-1l0 -68c0,-16 -1,-38 -3,-65 19,2 33,3 41,3 6,0 19,-1 40,-3 -1,8 -2,19 -3,33 -1,13 -2,25 -2,33 -1,51 -1,88 -1,113 0,68 1,119 4,152 -5,0 -11,0 -20,-1 -8,-1 -15,-1 -18,-1 -6,0 -13,0 -23,1 -9,1 -16,1 -21,1 2,-29 4,-52 5,-67 1,-30 1,-54 1,-69l0 -23c-33,-1 -57,-1 -74,-1 -16,0 -40,0 -74,1l0 58c0,30 1,64 4,101 -4,0 -11,0 -19,-1 -9,-1 -15,-1 -19,-1 -5,0 -12,0 -22,1 -9,1 -16,1 -21,1 4,-52 6,-111 6,-178 0,-59 -1,-110 -4,-153 19,2 32,3 39,3zm335 -3c9,0 21,1 37,2 16,1 29,1 39,1 17,0 36,0 58,-1 23,-1 40,-1 52,-1 -1,8 -1,20 -1,36 1,1 1,3 1,6 -47,-4 -84,-6 -110,-6 -1,11 -1,28 -1,50 0,6 0,15 -1,27 0,12 0,21 0,27l110 -4c-2,10 -3,17 -3,22 0,5 1,11 3,19 -32,-3 -61,-4 -86,-4 -3,0 -6,0 -12,0 -5,0 -9,0 -12,0l0 61 0 61c30,0 67,-2 112,-6 -1,8 -1,19 -1,35 1,2 1,4 1,6 -10,0 -24,0 -44,-1 -19,-1 -34,-2 -43,-2 -7,0 -16,1 -29,1 -13,1 -22,1 -29,1 -8,0 -23,0 -43,1 1,-3 1,-7 1,-14 0,-6 1,-10 1,-13 0,-10 1,-24 1,-45 1,-20 1,-36 1,-46 0,-8 0,-20 0,-36 1,-17 1,-29 1,-37l0 -57c0,-8 -1,-21 -1,-38 -1,-17 -2,-30 -2,-38l0 -7zm285 331c-6,-1 -13,-2 -19,-2 -7,0 -14,1 -22,2 3,-34 6,-70 7,-108 1,-37 2,-78 2,-122 0,-8 0,-21 0,-39 -1,-17 -1,-30 -1,-39 0,-10 0,-17 0,-23 10,2 17,3 21,3 4,0 12,-1 22,-3 19,21 37,41 54,59 17,17 35,37 56,60 20,22 38,40 53,56 14,16 30,34 47,54l0 -107 0 -54c0,-8 0,-18 -1,-30 -1,-13 -2,-22 -2,-28l-1 -10c11,2 18,3 22,3 3,0 7,0 11,-1 5,-1 8,-1 11,-1 -1,12 -1,21 -1,27 -2,23 -3,44 -4,61 0,10 0,18 -1,24 0,7 0,14 -1,23 0,9 0,18 -1,25 0,8 0,14 0,19l0 49 0 102c-1,0 -3,0 -5,0 -3,-1 -8,-1 -14,-1 -9,0 -15,0 -20,1 -59,-69 -112,-128 -159,-178l-52 -55c-1,30 -2,52 -2,65l0 45c0,55 2,96 4,123l-4 0zm395 -329c6,0 14,-1 25,-1 11,-1 20,-1 26,-1 23,0 41,1 53,2 28,2 50,6 67,13 18,7 33,18 45,32 26,29 39,66 39,110 0,28 -4,52 -13,73 -9,22 -24,41 -45,60 -17,15 -36,26 -55,32 -20,6 -42,9 -69,9 -35,0 -61,0 -78,0 -3,-1 -7,-1 -12,-1 -9,0 -24,0 -42,1 2,-56 4,-112 4,-169l0 -49c0,-8 0,-19 -1,-35 -1,-15 -1,-27 -1,-35 -1,-8 -1,-15 -1,-22 -1,-7 -1,-14 -1,-21 26,1 46,2 59,2zm51 301c24,0 44,-3 59,-9 15,-6 29,-17 41,-35 17,-26 26,-60 26,-103 0,-17 -2,-34 -8,-52 -5,-18 -13,-32 -23,-44 -12,-13 -25,-21 -39,-26 -15,-4 -33,-6 -53,-6 -4,0 -10,0 -17,1 -8,0 -13,1 -18,1 -2,54 -3,135 -3,242l0 30c8,1 20,1 35,1zm357 -97c-7,-13 -12,-21 -14,-24 -1,-2 -2,-3 -4,-3 -1,0 -2,1 -2,3 0,9 0,23 1,42 0,20 0,34 0,43l0 14c1,13 2,29 4,50 -4,0 -11,0 -20,-1 -8,-1 -15,-1 -19,-1 -4,0 -11,0 -20,1 -9,1 -15,1 -20,1l1 -9c0,-3 0,-7 1,-12 0,-4 0,-7 0,-9 1,-3 1,-6 1,-11 2,-20 2,-52 2,-95 0,-10 0,-24 0,-44 0,-19 0,-34 0,-44 0,-22 -1,-58 -3,-107l33 2c8,0 19,-1 35,-1 15,-1 27,-1 34,-1 39,0 65,3 79,10 28,16 42,40 42,71 0,23 -7,42 -20,57 -14,15 -32,24 -55,30 12,22 41,67 85,136l17 27c-4,0 -12,0 -21,-1 -10,-1 -18,-1 -22,-1 -15,0 -29,1 -44,2l-56 -99 -15 -26zm-19 -121l0 38c0,15 0,27 0,35 26,0 45,-6 57,-17 12,-12 18,-29 18,-52 0,-10 -1,-18 -2,-25 -2,-9 -6,-17 -10,-22 -5,-5 -10,-8 -16,-10 -7,-2 -14,-3 -22,-4 -9,0 -17,0 -25,0l0 57zm192 243l35 -83c42,-95 75,-177 101,-247 2,0 4,0 6,1 2,0 4,0 7,1 2,0 4,0 6,0 2,0 5,0 8,-1 3,0 7,-1 9,-1l4 8c40,105 82,210 127,316l3 5 0 4c-5,0 -12,0 -21,-1 -9,-1 -16,-1 -21,-1 -13,0 -27,1 -40,2 -14,-44 -25,-77 -34,-99 -6,0 -15,0 -27,0 -11,-1 -20,-1 -26,-1 -13,0 -32,0 -59,1l-2 7c-6,15 -11,31 -17,47 -6,16 -10,31 -14,45 -7,-1 -15,-2 -23,-2 -7,0 -15,1 -22,2l0 -3zm90 -125l89 0c-10,-29 -25,-67 -43,-113 -17,40 -32,76 -44,109l-2 4zm488 -201c6,0 14,-1 25,-1 11,-1 20,-1 26,-1 23,0 41,1 53,2 28,2 50,6 67,13 18,7 34,18 45,32 26,29 39,66 39,110 0,28 -4,52 -13,73 -9,22 -24,41 -45,60 -17,15 -36,26 -55,32 -19,6 -42,9 -69,9 -35,0 -61,0 -78,0 -3,-1 -7,-1 -12,-1 -9,0 -24,0 -42,1 3,-56 4,-112 4,-169l0 -49c0,-8 0,-19 -1,-35 -1,-15 -1,-27 -1,-35 -1,-8 -1,-15 -1,-22 -1,-7 -1,-14 -1,-21 26,1 46,2 59,2zm51 301c24,0 44,-3 59,-9 15,-6 29,-17 41,-35 17,-26 26,-60 26,-103 0,-17 -2,-34 -8,-52 -5,-18 -13,-32 -23,-44 -12,-13 -25,-21 -39,-26 -15,-4 -32,-6 -53,-6 -4,0 -10,0 -17,1 -8,0 -13,1 -18,1 -2,54 -3,135 -3,242l0 30c8,1 20,1 35,1zm562 -232c0,5 0,13 -1,24 0,10 0,18 0,24 0,6 0,14 -1,26 0,12 0,21 0,27 -1,37 -5,66 -10,86 -6,21 -19,38 -42,54 -24,17 -54,25 -91,25 -21,0 -41,-2 -60,-7 -19,-5 -35,-14 -50,-26 -14,-12 -24,-28 -30,-48 -1,-5 -3,-14 -4,-26 -1,-7 -1,-18 -1,-33 0,-10 -1,-21 -1,-33 0,-11 0,-20 0,-27l0 -61c0,-6 0,-15 -1,-28 0,-12 0,-21 0,-27 0,-2 0,-6 0,-10 -1,-5 -1,-8 -1,-11 19,2 33,3 40,3 8,0 21,-1 39,-3 0,2 0,6 -1,12 0,5 -1,9 -1,12 -3,42 -4,80 -4,113 0,44 1,75 3,92 3,14 6,25 9,32 3,8 9,15 17,23 15,14 33,21 55,21 23,0 40,-5 54,-14 13,-9 24,-24 33,-45 5,-14 8,-48 8,-100 0,-65 -1,-114 -4,-146 12,2 20,3 25,3 4,0 13,-1 24,-3 0,4 -1,8 -1,14 -1,7 -1,13 -2,20 0,7 0,13 0,17 0,5 -1,12 -1,20zm214 0c0,14 -1,34 -1,61 -1,27 -1,47 -1,60 0,7 0,17 0,31 1,13 1,24 1,31 0,8 0,21 1,39 1,17 1,30 1,38 -4,0 -10,0 -19,-1 -9,-1 -16,-1 -20,-1 -5,0 -11,0 -20,1 -9,1 -15,1 -20,1 0,-8 1,-19 2,-34 1,-15 1,-27 1,-34 2,-70 3,-124 3,-165 0,-14 0,-35 -1,-61 -10,0 -24,0 -43,1 -18,2 -34,4 -47,5 2,-4 2,-11 2,-20 0,-8 0,-13 0,-17 -1,0 -1,-1 -1,-3 0,-1 -1,-2 -1,-3 16,1 28,1 37,1 35,2 64,2 88,2l49 0c9,0 21,0 37,-1 15,-1 28,-2 38,-2 -1,7 -2,13 -2,20 0,7 1,15 2,23 -28,-4 -57,-6 -85,-6l-1 34zm268 0c0,14 0,34 0,61 -1,27 -1,47 -1,60 0,7 0,17 0,31 0,13 1,24 1,31 0,8 0,21 1,39 0,17 1,30 1,38 -4,0 -10,0 -19,-1 -9,-1 -16,-1 -21,-1 -4,0 -10,0 -19,1 -9,1 -15,1 -20,1 0,-8 1,-19 2,-34 0,-15 1,-27 1,-34 2,-70 3,-124 3,-165 0,-14 -1,-35 -2,-61 -9,0 -23,0 -42,1 -18,2 -34,4 -47,5 2,-4 2,-11 2,-20 0,-8 0,-13 0,-17 -1,0 -1,-1 -1,-3 0,-1 -1,-2 -1,-3 16,1 28,1 37,1 34,2 64,2 87,2l50 0c9,0 21,0 36,-1 16,-1 29,-2 39,-2 -1,7 -2,13 -2,20 0,7 1,15 2,23 -28,-4 -57,-6 -85,-6l-2 34z"/>
    <path class="fil5" d="M10386 3932l35 0c12,0 21,-2 26,-6 6,-4 8,-11 8,-21 0,-4 0,-8 -2,-11 -2,-4 -4,-7 -7,-9 -3,-1 -6,-2 -9,-3 -4,-1 -9,-1 -17,-1l-5 0 -29 0 0 51zm-13 70l0 -132 45 0c10,0 17,0 22,1 4,1 8,2 12,4 5,3 9,7 12,12 2,6 4,11 4,18 0,8 -2,15 -6,21 -3,5 -8,9 -15,11 5,2 9,5 11,9 3,3 4,11 5,22l2 20c0,3 1,6 1,8 1,2 2,3 3,4l0 2 -13 0c-1,-1 -2,-3 -2,-5 -1,-3 -1,-5 -1,-9l-2 -17c-1,-12 -3,-20 -6,-23 -4,-4 -11,-5 -21,-5l-38 0 0 59 -13 0z"/>
    <path class="fil6 str1" d="M10415 3839c54,0 98,44 98,98 0,54 -44,98 -98,98 -54,0 -98,-44 -98,-98 0,-54 44,-98 98,-98z"/>
    <polygon class="fil7 str0" points="7538,4402 8851,4402 8851,4745 7538,4745 "/>
    <path class="fil8" d="M7791 4502c0,7 -1,18 -1,32 -1,15 -1,26 -1,36 0,10 0,23 1,38 0,15 1,26 1,35 0,6 0,14 1,26 1,11 1,20 1,25 -3,0 -7,0 -13,-1 -7,0 -11,0 -14,0 -11,0 -21,0 -31,1 3,-37 5,-80 5,-128l0 -19c0,-8 -1,-16 -1,-25 0,-8 0,-15 0,-20 -1,-21 -2,-36 -3,-47 14,1 24,2 29,2 5,0 15,-1 28,-2 -1,20 -2,36 -2,47zm91 192c-5,-1 -9,-1 -13,-1 -6,0 -11,0 -17,1 3,-25 5,-51 6,-78 0,-27 1,-56 1,-88 0,-6 0,-16 0,-28 -1,-13 -1,-22 -1,-29 0,-7 0,-12 0,-16 7,1 13,2 15,2 4,0 9,-1 16,-2 14,15 27,29 39,42 12,13 26,27 41,43 15,16 27,30 38,41 10,12 22,25 34,39l0 -77 0 -39c0,-6 0,-14 -1,-22 0,-9 -1,-16 -1,-20l-1 -7c8,1 13,2 16,2 3,0 5,-1 9,-1 3,0 5,-1 7,-1 0,9 -1,15 -1,20 -1,17 -2,31 -3,44 0,7 0,13 0,18 0,4 0,10 -1,16 0,7 0,13 0,18 0,6 -1,10 -1,14l0 35 0 74c0,0 -2,0 -3,0 -3,-1 -6,-1 -10,-1 -7,0 -12,1 -15,1 -43,-50 -81,-93 -115,-128l-38 -40c0,21 -1,37 -1,47l0 32c0,40 1,70 3,89l-3 0zm286 -238c4,0 10,-1 18,-1 8,0 14,0 19,0 16,0 29,0 38,1 20,1 36,5 48,9 14,6 25,13 33,23 19,22 29,48 29,80 0,20 -4,38 -10,53 -7,16 -18,30 -32,43 -13,12 -26,19 -40,24 -14,4 -31,6 -50,6 -25,0 -44,0 -57,0 -2,-1 -5,-1 -9,-1 -6,0 -16,1 -30,1 2,-41 3,-81 3,-122l0 -36c0,-5 0,-14 -1,-25 0,-11 0,-20 -1,-26 0,-5 0,-10 0,-15 -1,-5 -1,-10 -1,-15 19,0 34,1 43,1zm37 218c17,0 31,-2 42,-7 11,-4 21,-12 30,-25 13,-19 19,-44 19,-74 0,-13 -2,-26 -6,-38 -3,-13 -9,-23 -16,-32 -9,-9 -18,-16 -29,-19 -10,-3 -23,-5 -38,-5 -3,0 -7,1 -12,1 -6,1 -10,1 -13,1 -1,39 -2,98 -2,175l0 22c6,1 14,1 25,1zm248 -172c-1,7 -1,18 -2,32 0,15 -1,26 -1,36 0,10 1,23 1,38 1,15 1,26 2,35 0,6 0,14 1,26 1,11 1,20 1,25 -3,0 -7,0 -14,-1 -6,0 -10,0 -13,0 -11,0 -21,0 -32,1 4,-37 5,-80 5,-128l0 -19c0,-8 0,-16 0,-25 0,-8 0,-15 0,-20 -1,-21 -2,-36 -3,-47 14,1 23,2 29,2 5,0 14,-1 28,-2 -1,20 -2,36 -2,47zm38 190l26 -60c29,-69 54,-128 72,-179 2,0 3,0 5,0 1,1 3,1 5,1 1,0 3,1 4,1 2,0 4,-1 6,-1 2,0 5,-1 7,-1l3 6c28,76 59,152 91,228l2 4 0 3c-3,0 -8,0 -15,-1 -6,0 -11,0 -15,0 -10,0 -19,0 -29,1 -10,-32 -18,-56 -24,-71 -5,0 -11,-1 -20,-1 -8,0 -15,0 -19,0 -9,0 -23,0 -43,1l-1 4c-4,11 -8,23 -12,34 -5,12 -8,23 -10,33 -6,-1 -11,-1 -17,-1 -5,0 -11,0 -16,1l0 -2zm65 -90l65 0c-8,-22 -18,-49 -32,-82 -12,28 -23,55 -31,78l-2 4z"/>
    <path class="fil9" d="M6909 4937c0,3 0,7 0,13 -1,6 -1,11 -1,14 0,3 0,8 0,14 0,7 0,12 0,15 -1,21 -3,37 -6,48 -3,12 -11,21 -23,30 -13,9 -30,14 -51,14 -12,0 -23,-1 -33,-4 -11,-3 -20,-8 -28,-14 -8,-7 -13,-16 -16,-27 -1,-3 -2,-8 -3,-14 0,-4 -1,-10 -1,-19 0,-5 0,-11 0,-18 0,-6 0,-11 0,-15l0 -34c0,-3 0,-8 0,-15 0,-7 0,-12 0,-16 0,-1 0,-3 -1,-5 0,-3 0,-5 0,-6 11,1 18,1 22,1 5,0 12,0 22,-1 0,1 0,3 -1,6 0,3 0,5 0,7 -2,23 -2,44 -2,63 0,24 0,41 1,51 2,8 4,14 5,18 2,4 5,8 10,12 8,8 18,12 30,12 13,0 23,-3 30,-8 8,-5 14,-13 18,-24 3,-8 5,-27 5,-56 0,-36 -1,-63 -2,-81 6,1 11,1 14,1 2,0 7,0 13,-1 0,2 0,4 -1,8 0,3 0,7 0,11 0,3 -1,7 -1,9 0,3 0,7 0,11zm61 -39c1,0 2,0 5,1 2,0 4,0 5,0 3,0 6,0 12,-1 15,33 35,75 62,127l15 -31c18,-35 34,-67 47,-96 1,0 1,0 2,0 0,0 1,0 1,1 9,0 16,-1 20,-1 3,25 8,67 15,126 1,7 2,16 4,28 1,12 2,18 2,19 1,1 1,3 1,5 1,3 1,5 1,6 -2,0 -6,0 -11,-1 -5,0 -8,0 -11,0 -2,0 -6,0 -11,0 -4,1 -8,1 -11,1 -1,-18 -2,-38 -4,-60 -3,-22 -5,-44 -7,-64 -30,61 -50,103 -60,124l-10 0 -21 -43c-5,-11 -12,-26 -21,-44 -8,-17 -14,-29 -17,-34 -2,19 -4,35 -5,48 -1,11 -2,21 -3,30 -1,10 -2,19 -2,26 0,2 0,5 0,8 -1,4 -1,7 -1,9 -4,-1 -8,-1 -13,-1 -4,0 -8,0 -12,1 0,-4 1,-7 2,-10 1,-5 2,-13 4,-24 2,-11 3,-16 3,-17 3,-16 5,-34 7,-53l12 -80zm302 87c13,0 24,4 33,12 10,9 15,20 15,32 0,14 -4,26 -14,36 -6,7 -17,12 -33,16 -4,0 -10,1 -18,1 -4,0 -11,0 -20,-1 -8,0 -15,0 -19,0 -5,0 -13,0 -24,1 1,-8 2,-21 3,-37 0,-33 0,-57 0,-74 0,-8 0,-32 -2,-73 14,0 24,1 31,1 4,0 11,-1 19,-1 9,0 15,0 19,0 10,0 19,1 27,4 8,3 15,7 20,13 4,6 7,15 7,25 0,11 -4,21 -13,29 -8,7 -19,12 -31,14l0 2zm-7 -14c7,-7 11,-16 11,-28 0,-4 -1,-8 -2,-13 -2,-5 -4,-9 -7,-10 -5,-5 -12,-7 -20,-7 -5,0 -10,0 -13,1 0,16 -1,28 -1,36l0 28c8,0 14,-1 19,-1 4,-1 8,-3 13,-6zm-18 95c11,0 19,-3 24,-11 5,-8 7,-16 7,-24 0,-25 -12,-38 -35,-38 -4,0 -7,0 -10,0 0,9 0,22 0,39 0,4 0,10 0,17 0,8 0,13 0,17 2,0 4,0 7,0 3,0 5,0 7,0zm161 -54c-4,-7 -7,-12 -8,-13 -1,-1 -2,-2 -2,-2 -1,0 -2,1 -2,2 0,5 1,13 1,23 0,11 0,19 0,24l0 8c1,7 1,16 2,28 -2,0 -6,0 -11,-1 -4,0 -8,0 -10,0 -3,0 -7,0 -11,0 -5,1 -9,1 -11,1l0 -5c0,-2 0,-4 0,-7 0,-2 1,-4 1,-5 0,-1 0,-3 0,-6 1,-11 1,-29 1,-53 0,-5 0,-13 0,-24 0,-11 0,-19 0,-25 0,-12 -1,-32 -2,-59l19 1c4,0 11,-1 19,-1 9,0 15,0 19,0 22,0 36,2 44,5 16,9 23,22 23,40 0,12 -3,23 -11,31 -7,9 -17,14 -30,17 7,12 22,37 47,75l10 16c-3,0 -7,0 -12,-1 -6,0 -10,0 -13,0 -8,0 -16,0 -24,1l-31 -55 -8 -15zm-11 -67l0 21c0,9 0,15 0,20 15,0 25,-4 32,-10 6,-6 10,-16 10,-29 0,-5 -1,-10 -2,-14 -1,-5 -3,-9 -5,-12 -3,-3 -6,-5 -9,-6 -3,-1 -8,-1 -12,-2 -5,0 -9,0 -14,0l0 32zm123 -47c5,0 12,0 21,1 9,0 16,0 22,0 9,0 20,0 32,0 13,0 22,-1 29,-1 -1,5 -1,11 -1,20 1,1 1,2 1,3 -27,-2 -47,-3 -62,-3 0,6 0,16 0,28 0,4 0,8 0,15 0,7 0,12 0,15l61 -2c-1,5 -2,10 -2,12 0,3 1,6 2,11 -18,-2 -34,-2 -48,-2 -2,0 -4,0 -7,-1 -3,0 -5,0 -6,0l0 35 0 33c16,0 37,-1 62,-3 -1,4 -1,11 -1,20 1,0 1,1 1,3 -6,0 -14,-1 -25,-1 -10,-1 -18,-1 -24,-1 -3,0 -9,0 -16,1 -7,0 -12,0 -16,0 -5,0 -13,0 -24,1 1,-2 1,-4 1,-8 0,-3 0,-6 0,-8 0,-5 1,-13 1,-24 0,-12 0,-20 0,-26 0,-4 1,-11 1,-20 0,-9 0,-16 0,-20l0 -32c0,-5 0,-12 -1,-21 0,-10 -1,-17 -1,-22l0 -3zm135 0c10,1 17,1 22,1 4,0 11,0 22,-1 -1,5 -1,13 -2,23 0,10 -1,19 -1,25 0,7 0,18 0,32l0 51c0,3 0,9 0,16 0,8 0,14 0,17l15 0c8,0 23,-1 47,-3 0,2 -1,6 -1,11 0,6 1,9 1,12l-45 -2c-5,0 -11,0 -19,1 -8,0 -14,0 -18,0 -5,0 -12,0 -22,1 1,-23 2,-52 2,-87 0,-4 0,-9 0,-17 1,-7 1,-12 1,-16 0,-6 -1,-16 -1,-29 0,-14 -1,-23 -1,-30l0 -5zm134 0c11,1 18,1 22,1 4,0 11,0 22,-1 0,5 -1,13 -1,23 -1,10 -1,19 -1,25 0,7 -1,18 -1,32l0 51c0,3 1,9 1,16 0,8 0,14 0,17l15 0c7,0 23,-1 47,-3 -1,2 -1,6 -1,11 0,6 0,9 1,12l-46 -2c-4,0 -10,0 -18,1 -8,0 -14,0 -18,0 -5,0 -13,0 -23,1 2,-23 3,-52 3,-87 0,-4 0,-9 0,-17 0,-7 0,-12 0,-16 0,-6 0,-16 -1,-29 0,-14 0,-23 0,-30l-1 -5zm118 182l20 -46c23,-53 41,-98 56,-137 1,0 2,0 3,0 1,0 2,0 4,0 1,1 2,1 3,1 2,0 3,0 5,-1 2,0 3,0 5,0l2 4c22,58 46,117 70,175l2 3 0 3c-3,0 -6,0 -11,-1 -6,0 -9,0 -12,0 -8,0 -15,0 -22,1 -8,-25 -14,-43 -19,-55 -3,0 -8,0 -15,-1 -7,0 -12,0 -15,0 -7,0 -18,0 -33,1l-1 4c-3,8 -6,17 -9,26 -3,9 -6,17 -8,25 -4,-1 -8,-1 -13,-1 -4,0 -8,0 -12,1l0 -2zm50 -69l50 0c-6,-17 -14,-38 -24,-63 -10,22 -18,42 -25,60l-1 3zm178 68c-1,1 -2,2 -3,3 -1,1 -3,1 -6,1 -2,0 -5,0 -8,-1 -4,-1 -7,-3 -10,-7 -3,-4 -4,-8 -4,-13 0,-3 1,-7 3,-10 4,-7 10,-10 18,-10 4,0 8,1 12,2 4,2 6,4 8,7 5,8 8,17 8,26 0,5 -1,11 -2,18 -2,12 -7,21 -16,28 -8,6 -15,10 -20,12l-6 -13c0,0 2,0 5,-2 3,-1 6,-3 9,-5 3,-3 6,-6 8,-11 3,-5 5,-11 5,-18 0,-4 -1,-7 -1,-7zm199 -67c-5,-7 -7,-12 -8,-13 -1,-1 -2,-2 -2,-2 -1,0 -2,1 -2,2 0,5 0,13 1,23 0,11 0,19 0,24l0 8c0,7 1,16 2,28 -2,0 -6,0 -11,-1 -5,0 -8,0 -11,0 -2,0 -6,0 -11,0 -5,1 -8,1 -11,1l1 -5c0,-2 0,-4 0,-7 0,-2 0,-4 0,-5 1,-1 1,-3 1,-6 1,-11 1,-29 1,-53 0,-5 0,-13 0,-24 0,-11 0,-19 0,-25 0,-12 -1,-32 -2,-59l19 1c4,0 10,-1 19,-1 8,0 15,0 19,0 22,0 36,2 44,5 15,9 23,22 23,40 0,12 -3,23 -11,31 -7,9 -18,14 -31,17 7,12 23,37 48,75l9 16c-2,0 -6,0 -12,-1 -5,0 -9,0 -12,0 -8,0 -16,0 -24,1l-31 -55 -8 -15zm-11 -67l0 21c0,9 0,15 0,20 14,0 25,-4 32,-10 6,-6 9,-16 9,-29 0,-5 0,-10 -1,-14 -1,-5 -3,-9 -5,-12 -3,-3 -6,-5 -9,-6 -4,-1 -8,-1 -12,-2 -5,0 -10,0 -14,0l0 32zm106 135l20 -46c23,-53 42,-98 56,-137 1,0 2,0 3,0 2,0 3,0 4,0 2,1 3,1 3,1 2,0 4,0 5,-1 2,0 4,0 5,0l3 4c22,58 45,117 70,175l1 3 0 3c-2,0 -6,0 -11,-1 -5,0 -9,0 -12,0 -7,0 -15,0 -22,1 -8,-25 -14,-43 -19,-55 -3,0 -8,0 -15,-1 -6,0 -11,0 -15,0 -6,0 -17,0 -32,1l-1 4c-3,8 -7,17 -10,26 -3,9 -5,17 -7,25 -4,-1 -9,-1 -13,-1 -4,0 -8,0 -13,1l0 -2zm51 -69l49 0c-6,-17 -14,-38 -24,-63 -9,22 -18,42 -24,60l-1 3zm189 -77c0,6 0,14 -1,25 0,11 -1,20 -1,27 0,8 1,18 1,29 1,12 1,21 1,27 0,5 0,11 1,20 1,9 1,16 1,20 -2,0 -6,0 -11,-1 -4,0 -8,0 -10,0 -8,0 -16,0 -24,1 2,-29 4,-62 4,-99l0 -14c0,-6 0,-12 -1,-19 0,-7 0,-12 0,-16 0,-16 -1,-28 -2,-36 11,1 18,1 22,1 4,0 11,0 22,-1 -1,16 -2,28 -2,36zm70 147c-3,0 -7,0 -10,0 -4,0 -9,0 -13,1 2,-19 3,-39 4,-60 1,-21 1,-44 1,-68 0,-5 0,-12 0,-22 0,-9 0,-17 0,-21 0,-6 0,-10 -1,-13 6,1 10,1 12,1 3,0 7,0 13,-1 10,11 20,22 30,32 9,10 19,21 31,34 11,12 21,22 29,31 8,9 17,19 26,30l0 -59 0 -31c0,-4 0,-10 0,-16 -1,-7 -1,-12 -1,-16l-1 -5c6,1 10,1 12,1 2,0 4,0 7,0 2,0 4,-1 6,-1 -1,7 -1,12 -1,15 -1,13 -2,24 -2,34 0,6 -1,10 -1,14 0,3 0,8 0,13 0,5 -1,9 -1,13 0,5 0,8 0,11l0 27 0 57c0,0 -1,-1 -3,-1 -2,0 -4,0 -7,0 -5,0 -9,0 -12,1 -33,-39 -62,-72 -88,-99l-29 -31c0,17 -1,29 -1,36l0 25c0,31 1,54 2,69l-2 -1zm251 1c-4,-1 -9,-1 -14,-1 -4,0 -9,0 -14,1 -4,-17 -9,-36 -15,-55 -5,-19 -11,-39 -18,-61 -6,-21 -12,-41 -18,-60l-2 -8c10,1 17,1 21,1 5,0 12,0 22,-1 4,14 7,29 11,44 4,15 9,31 13,48 5,17 9,31 12,42 3,-9 8,-23 15,-43 8,-20 14,-38 19,-52 5,-14 9,-27 13,-39 6,1 11,1 13,1 3,0 7,0 14,-1 2,11 6,22 9,34 4,11 7,21 10,29 3,8 7,20 12,36 5,16 9,28 11,35 20,-61 33,-105 40,-134 6,1 10,1 12,1 3,0 7,0 12,-1l0 2c-8,21 -15,42 -22,61 -6,19 -13,40 -20,61 -7,22 -14,42 -19,60 -5,-1 -9,-1 -14,-1 -5,0 -9,0 -14,1 -5,-20 -12,-41 -19,-63 -7,-22 -15,-44 -24,-68 -10,29 -18,52 -25,69 -6,18 -13,38 -20,59l-1 3zm203 -184c5,0 12,0 21,1 9,0 16,0 22,0 9,0 20,0 32,0 12,0 22,-1 29,-1 -1,5 -1,11 -1,20 0,1 1,2 1,3 -27,-2 -47,-3 -62,-3 0,6 0,16 0,28 0,4 0,8 0,15 0,7 -1,12 -1,15l62 -2c-1,5 -2,10 -2,12 0,3 1,6 2,11 -18,-2 -34,-2 -48,-2 -2,0 -4,0 -7,-1 -3,0 -5,0 -7,0l0 35 0 33c17,0 38,-1 63,-3 -1,4 -1,11 -1,20 0,0 1,1 1,3 -6,0 -14,-1 -25,-1 -10,-1 -19,-1 -24,-1 -3,0 -9,0 -16,1 -7,0 -12,0 -16,0 -5,0 -13,0 -24,1 1,-2 1,-4 1,-8 0,-3 0,-6 0,-8 0,-5 1,-13 1,-24 0,-12 0,-20 0,-26 0,-4 0,-11 1,-20 0,-9 0,-16 0,-20l0 -32c0,-5 0,-12 -1,-21 0,-10 -1,-17 -1,-22l0 -3zm118 182l20 -46c23,-53 41,-98 56,-137 1,0 2,0 3,0 1,0 2,0 4,0 1,1 2,1 3,1 2,0 3,0 5,-1 2,0 3,0 5,0l2 4c22,58 46,117 70,175l2 3 0 3c-3,0 -6,0 -11,-1 -6,0 -9,0 -12,0 -8,0 -15,0 -22,1 -8,-25 -14,-43 -19,-55 -3,0 -8,0 -15,-1 -7,0 -12,0 -15,0 -7,0 -18,0 -33,1l-1 4c-3,8 -6,17 -9,26 -3,9 -6,17 -8,25 -4,-1 -8,-1 -13,-1 -4,0 -8,0 -12,1l0 -2zm50 -69l50 0c-6,-17 -14,-38 -24,-63 -10,22 -18,42 -25,60l-1 3zm198 1c-4,-7 -7,-12 -8,-13 -1,-1 -1,-2 -2,-2 -1,0 -1,1 -1,2 0,5 0,13 0,23 0,11 0,19 0,24l0 8c1,7 1,16 3,28 -3,0 -7,0 -11,-1 -5,0 -9,0 -11,0 -3,0 -6,0 -11,0 -5,1 -9,1 -11,1l0 -5c0,-2 0,-4 0,-7 1,-2 1,-4 1,-5 0,-1 0,-3 0,-6 1,-11 2,-29 2,-53 0,-5 -1,-13 -1,-24 0,-11 0,-19 0,-25 0,-12 0,-32 -1,-59l18 1c4,0 11,-1 19,-1 9,0 15,0 20,0 21,0 36,2 43,5 16,9 24,22 24,40 0,12 -4,23 -12,31 -7,9 -17,14 -30,17 7,12 23,37 47,75l10 16c-3,0 -7,0 -12,-1 -6,0 -10,0 -13,0 -7,0 -16,0 -24,1l-31 -55 -8 -15zm-11 -67l0 21c0,9 0,15 0,20 15,0 25,-4 32,-10 7,-6 10,-16 10,-29 0,-5 -1,-10 -1,-14 -2,-5 -3,-9 -6,-12 -2,-3 -5,-5 -9,-6 -3,-1 -7,-1 -12,-2 -5,0 -9,0 -14,0l0 32zm155 134c-1,1 -1,2 -3,3 -1,1 -3,1 -6,1 -2,0 -4,0 -7,-1 -5,-1 -8,-3 -11,-7 -2,-4 -4,-8 -4,-13 0,-3 1,-7 3,-10 4,-7 10,-10 18,-10 5,0 9,1 12,2 4,2 6,4 8,7 6,8 8,17 8,26 0,5 0,11 -2,18 -2,12 -7,21 -15,28 -9,6 -15,10 -20,12l-6 -13c0,0 1,0 4,-2 3,-1 6,-3 9,-5 3,-3 6,-6 8,-11 3,-5 5,-11 5,-18 0,-4 0,-7 -1,-7z"/>
    <path class="fil9" d="M6684 5412l20 -46c23,-53 42,-99 56,-138 1,0 2,0 3,1 1,0 3,0 4,0 1,0 2,0 3,0 2,0 3,0 5,0 2,0 4,-1 5,-1l2 5c22,58 46,117 71,175l1 3 0 3c-2,-1 -6,-1 -11,-1 -5,-1 -9,-1 -12,-1 -7,0 -15,1 -22,2 -8,-25 -14,-43 -19,-55 -3,0 -8,-1 -15,-1 -6,0 -11,0 -15,0 -7,0 -18,0 -32,1l-2 3c-3,9 -6,17 -9,26 -3,9 -6,18 -8,26 -4,-1 -8,-2 -12,-2 -4,0 -9,1 -13,2l0 -2zm51 -70l49 0c-6,-16 -14,-37 -24,-63 -10,22 -18,43 -25,61l0 2zm189 -77c0,6 -1,15 -1,26 -1,11 -1,20 -1,27 0,8 0,17 1,29 0,12 1,21 1,27 0,4 0,11 1,20 0,9 1,15 1,20 -3,-1 -6,-1 -11,-1 -5,-1 -8,-1 -10,-1 -8,0 -16,1 -24,2 2,-29 3,-62 3,-99l0 -15c0,-6 0,-12 0,-19 0,-6 0,-12 0,-15 -1,-16 -1,-28 -2,-37 10,2 18,2 22,2 4,0 11,0 22,-2 -1,16 -2,28 -2,36zm97 79c-4,-7 -6,-12 -7,-14 -1,-1 -2,-1 -3,-1 0,0 -1,0 -1,1 0,6 0,13 1,24 0,11 0,19 0,24l0 7c0,8 1,17 2,29 -2,-1 -6,-1 -11,-1 -5,-1 -8,-1 -11,-1 -2,0 -6,0 -11,1 -5,0 -8,0 -11,1l1 -5c0,-3 0,-5 0,-7 0,-2 0,-4 0,-5 0,-2 1,-4 1,-6 1,-12 1,-29 1,-53 0,-6 0,-14 0,-25 0,-10 0,-19 0,-24 0,-13 -1,-33 -2,-60l19 1c4,0 10,0 19,0 8,0 15,-1 19,-1 22,0 36,2 43,6 16,9 24,22 24,39 0,13 -4,23 -11,32 -8,8 -18,14 -31,17 7,12 23,37 48,75l9 16c-2,-1 -6,-1 -12,-1 -5,-1 -9,-1 -12,-1 -8,0 -16,1 -24,2l-31 -55 -9 -15zm-10 -67l0 21c0,8 0,15 0,19 14,0 25,-3 31,-9 7,-7 10,-16 10,-29 0,-6 0,-10 -1,-14 -1,-5 -3,-9 -5,-12 -3,-3 -6,-5 -9,-6 -4,-1 -8,-2 -13,-2 -4,0 -9,0 -13,0l0 32zm237 -47c4,0 10,0 18,0 7,0 13,-1 16,-1 14,0 24,1 29,2 12,3 20,8 27,16 7,8 10,17 10,29 0,16 -5,29 -14,39 -6,6 -11,10 -16,12 -5,2 -12,4 -22,5 -4,1 -9,1 -17,2 -7,0 -12,0 -14,0 0,4 0,10 0,19 0,8 0,14 0,18 1,19 2,33 2,43 -2,-1 -6,-1 -11,-1 -5,-1 -9,-1 -11,-1 -3,0 -6,0 -11,1 -5,0 -9,0 -11,1 0,-2 0,-5 0,-8 0,-3 0,-5 1,-7 1,-12 1,-22 1,-29l0 -41c0,-16 0,-40 -1,-72 0,-12 0,-21 0,-28 5,1 13,1 24,1zm17 47l0 23c0,8 0,15 0,19 9,0 15,-1 17,-2 16,-4 23,-16 23,-36 0,-15 -4,-25 -12,-32 -4,-3 -13,-4 -27,-4l-1 32zm153 -12c0,6 -1,15 -1,26 -1,11 -1,20 -1,27 0,8 0,17 1,29 0,12 1,21 1,27 0,4 0,11 1,20 0,9 1,15 1,20 -2,-1 -6,-1 -11,-1 -5,-1 -8,-1 -10,-1 -8,0 -16,1 -24,2 2,-29 3,-62 3,-99l0 -15c0,-6 0,-12 0,-19 0,-6 0,-12 0,-15 -1,-16 -1,-28 -2,-37 10,2 18,2 22,2 4,0 11,0 22,-2 -1,16 -2,28 -2,36zm46 -36c10,2 17,2 22,2 4,0 11,0 22,-2 -1,6 -1,14 -2,24 0,10 -1,18 -1,25 0,7 0,17 0,31l0 51c0,4 0,9 0,17 0,8 0,13 0,17l15 -1c8,0 23,-1 47,-3 0,3 -1,7 -1,12 0,5 1,9 1,12l-45 -2c-5,0 -11,0 -19,0 -8,1 -14,1 -18,1 -5,0 -12,0 -22,1 1,-24 2,-53 2,-88 0,-3 0,-9 0,-16 1,-7 1,-12 1,-16 0,-7 -1,-17 -1,-30 0,-13 -1,-23 -1,-29l0 -6zm134 0c11,2 18,2 22,2 4,0 11,0 22,-2 0,6 -1,14 -1,24 -1,10 -1,18 -1,25 0,7 -1,17 -1,31l0 51c0,4 1,9 1,17 0,8 0,13 0,17l15 -1c7,0 23,-1 47,-3 -1,3 -1,7 -1,12 0,5 0,9 1,12l-46 -2c-4,0 -10,0 -18,0 -8,1 -14,1 -18,1 -5,0 -13,0 -23,1 2,-24 3,-53 3,-88 0,-3 0,-9 0,-16 0,-7 0,-12 0,-16 0,-7 0,-17 -1,-30 0,-13 0,-23 -1,-29l0 -6zm298 164c-19,17 -44,25 -74,25 -31,0 -55,-8 -73,-26 -18,-17 -26,-40 -26,-69 0,-30 10,-54 32,-72 20,-17 44,-25 74,-25 24,0 45,6 62,18 14,10 24,22 29,35 5,13 8,27 8,42 0,14 -3,27 -8,40 -6,12 -13,23 -24,32zm-24 -21c8,-15 12,-33 12,-56 0,-12 -2,-24 -6,-35 -4,-12 -11,-21 -19,-29 -9,-7 -20,-11 -32,-11 -12,0 -22,3 -30,10 -9,5 -15,13 -19,22 -7,14 -11,33 -11,57 0,13 2,24 6,35 4,11 10,20 19,27 8,7 19,10 32,10 20,0 36,-10 48,-30zm150 42c-4,-1 -9,-2 -14,-2 -4,0 -9,1 -14,2 -4,-18 -9,-36 -15,-55 -5,-20 -11,-40 -18,-61 -6,-21 -12,-41 -18,-61l-2 -8c10,2 17,2 22,2 4,0 12,0 21,-2 4,15 8,29 11,44 4,15 9,31 13,48 5,17 9,31 12,43 3,-9 8,-23 15,-44 8,-20 14,-37 19,-51 5,-15 9,-28 13,-40 6,2 11,2 13,2 3,0 7,0 14,-2 3,11 6,23 10,34 3,12 6,22 9,30 3,7 7,19 12,36 6,16 9,28 11,35 20,-61 33,-106 40,-135 6,2 10,2 12,2 3,0 7,0 12,-2l0 3c-7,21 -15,41 -22,61 -6,19 -13,39 -20,61 -7,21 -14,41 -19,60 -5,-1 -9,-2 -14,-2 -5,0 -9,1 -14,2 -5,-20 -12,-41 -19,-63 -7,-22 -15,-45 -24,-68 -10,28 -18,51 -25,69 -6,18 -13,37 -20,59l-1 3zm235 -3c-1,1 -1,1 -3,2 -1,1 -3,2 -6,2 -2,0 -5,-1 -8,-1 -4,-1 -7,-4 -10,-7 -3,-4 -4,-8 -4,-13 0,-4 1,-7 3,-10 4,-7 10,-11 18,-11 4,0 8,1 12,3 4,2 6,4 8,7 5,8 8,16 8,26 0,4 0,10 -2,18 -2,12 -7,21 -16,27 -8,6 -14,11 -19,12l-7 -12c0,0 2,-1 5,-2 3,-1 6,-3 9,-6 3,-2 6,-6 8,-10 3,-6 5,-12 5,-18 0,-5 -1,-7 -1,-7zm227 -95c13,0 24,4 34,13 10,8 14,19 14,32 0,14 -4,25 -14,36 -6,7 -17,12 -33,15 -4,1 -10,2 -18,2 -4,0 -11,-1 -19,-1 -9,0 -16,0 -20,0 -5,0 -13,0 -24,1 1,-9 2,-21 3,-38 0,-32 1,-57 1,-73 0,-8 -1,-33 -3,-74 14,1 24,1 31,1 4,0 11,0 19,0 9,0 15,-1 20,-1 9,0 18,2 26,5 8,2 15,7 20,13 5,6 7,14 7,24 0,12 -4,22 -13,29 -8,8 -19,12 -31,14l0 2zm-7 -13c7,-7 11,-16 11,-28 0,-4 -1,-8 -2,-13 -2,-5 -4,-9 -6,-11 -6,-4 -13,-7 -21,-7 -5,0 -9,1 -13,1 0,16 0,28 0,37l0 27c7,0 13,0 18,-1 4,-1 9,-2 13,-5zm-18 95c11,0 19,-4 24,-12 5,-7 7,-15 7,-23 0,-26 -12,-38 -35,-38 -4,0 -7,0 -9,0 -1,9 -1,22 -1,39 0,4 0,9 0,17 1,7 1,13 1,17 1,0 3,0 6,0 3,0 5,0 7,0zm93 14l19 -46c23,-53 42,-99 56,-138 1,0 2,0 3,1 2,0 3,0 4,0 2,0 3,0 4,0 1,0 3,0 4,0 2,0 4,-1 5,-1l3 5c22,58 45,117 70,175l2 3 0 3c-3,-1 -7,-1 -12,-1 -5,-1 -9,-1 -12,-1 -7,0 -15,1 -22,2 -8,-25 -14,-43 -19,-55 -3,0 -8,-1 -14,-1 -7,0 -12,0 -15,0 -7,0 -18,0 -33,1l-1 3c-3,9 -6,17 -10,26 -3,9 -5,18 -7,26 -4,-1 -9,-2 -13,-2 -4,0 -8,1 -12,2l0 -2zm50 -70l49 0c-6,-16 -14,-37 -24,-63 -9,22 -18,43 -24,61l-1 2zm226 -26c13,0 24,4 33,13 10,8 15,19 15,32 0,14 -5,25 -14,36 -7,7 -17,12 -33,15 -5,1 -11,2 -18,2 -4,0 -11,-1 -20,-1 -8,0 -15,0 -19,0 -6,0 -13,0 -24,1 1,-9 2,-21 2,-38 1,-32 1,-57 1,-73 0,-8 0,-33 -2,-74 14,1 24,1 30,1 5,0 11,0 20,0 9,0 15,-1 19,-1 10,0 19,2 27,5 8,2 14,7 19,13 5,6 8,14 8,24 0,12 -5,22 -13,29 -8,8 -19,12 -31,14l0 2zm-8 -13c8,-7 12,-16 12,-28 0,-4 -1,-8 -3,-13 -1,-5 -3,-9 -6,-11 -5,-4 -12,-7 -20,-7 -5,0 -10,1 -13,1 0,16 -1,28 -1,37l0 27c8,0 14,0 18,-1 5,-1 9,-2 13,-5zm-17 95c11,0 19,-4 24,-12 5,-7 7,-15 7,-23 0,-26 -12,-38 -36,-38 -3,0 -6,0 -9,0 0,9 0,22 0,39 0,4 0,9 0,17 0,7 0,13 0,17 2,0 4,0 7,0 3,0 5,0 7,0zm119 -167c5,0 13,0 24,-2 2,4 3,8 5,12 2,4 4,8 6,12 3,6 7,14 12,25 3,5 7,13 12,24 2,5 4,8 5,9 0,0 0,-1 0,-1 0,0 1,-2 4,-5 2,-2 4,-5 5,-8 3,-6 9,-16 16,-32 2,-5 6,-12 10,-22 1,-2 2,-5 3,-8 1,-2 2,-4 3,-6 0,1 1,1 1,1 1,0 1,0 2,0 2,1 5,1 8,1 5,0 9,-1 14,-2 -5,10 -14,25 -27,48 -13,23 -22,41 -29,55 0,13 -1,24 -1,31 0,8 1,25 3,51 -2,-1 -6,-1 -11,-1 -5,-1 -9,-1 -12,-1 -8,0 -15,1 -23,2 2,-20 3,-40 3,-62 1,-3 1,-8 1,-15 -5,-9 -10,-17 -15,-25 -4,-9 -9,-18 -14,-27 -5,-9 -10,-19 -15,-29 -6,-10 -10,-19 -14,-27 11,2 19,2 24,2zm262 -2c1,1 3,1 5,1 2,1 4,1 6,1 2,0 6,0 11,-2 15,34 36,76 62,128l16 -31c18,-35 33,-67 47,-97 0,1 0,1 1,1 1,0 1,0 1,0 9,0 16,0 21,-1 2,25 7,67 14,127 1,6 2,16 4,28 2,11 3,18 3,18 0,1 0,3 1,6 0,2 0,4 0,6 -2,-1 -5,-1 -10,-1 -5,-1 -9,-1 -12,-1 -2,0 -5,0 -10,1 -5,0 -9,0 -11,1 -1,-19 -3,-39 -5,-61 -2,-22 -4,-43 -7,-64 -30,62 -50,103 -59,125l-11 0 -20 -43c-6,-12 -12,-26 -21,-44 -9,-18 -15,-29 -17,-34 -3,19 -5,34 -6,47 -1,12 -2,22 -2,31 -2,10 -2,19 -3,26 0,2 0,5 0,8 0,4 0,7 0,9 -5,-1 -9,-2 -13,-2 -4,0 -8,1 -13,2 0,-4 1,-7 2,-10 1,-5 3,-13 5,-24 1,-11 2,-17 2,-17 3,-17 6,-34 8,-53l11 -81zm206 183l19 -46c23,-53 42,-99 56,-138 1,0 2,0 4,1 1,0 2,0 3,0 2,0 3,0 4,0 1,0 3,0 5,0 1,0 3,-1 5,-1l2 5c22,58 45,117 70,175l2 3 0 3c-3,-1 -7,-1 -12,-1 -5,-1 -9,-1 -12,-1 -7,0 -14,1 -22,2 -8,-25 -14,-43 -19,-55 -3,0 -8,-1 -14,-1 -7,0 -12,0 -15,0 -7,0 -18,0 -33,1l-1 3c-3,9 -6,17 -10,26 -3,9 -5,18 -7,26 -4,-1 -9,-2 -13,-2 -4,0 -8,1 -12,2l0 -2zm50 -70l49 0c-6,-16 -14,-37 -24,-63 -9,22 -17,43 -24,61l-1 2zm221 -73c0,8 -1,19 -1,34 0,15 0,26 0,33 0,4 0,10 0,17 0,8 0,14 0,18 0,4 0,11 1,21 0,10 0,17 0,22 -2,-1 -5,-1 -10,-1 -5,-1 -9,-1 -12,-1 -2,0 -6,0 -10,1 -5,0 -9,0 -11,1 0,-5 0,-11 0,-20 1,-8 1,-14 1,-19 1,-38 2,-69 2,-91 0,-8 0,-19 -1,-34 -5,0 -13,0 -24,1 -10,0 -18,1 -26,2 1,-2 2,-6 2,-11 0,-4 -1,-7 -1,-9 0,-1 0,-1 0,-2 0,-1 -1,-1 -1,-2 9,1 16,1 21,1 19,1 35,1 48,1l28 0c5,0 12,0 20,-1 9,0 16,-1 22,-1 -1,4 -1,8 -1,11 0,4 0,9 1,13 -16,-2 -32,-3 -48,-3l0 19z"/>
   </g>
  </g>
 </g>
</svg>
