<?xml version="1.0" encoding="UTF-8"?>
<!DOCTYPE svg PUBLIC "-//W3C//DTD SVG 1.1//EN" "http://www.w3.org/Graphics/SVG/1.1/DTD/svg11.dtd">
<!-- Creator: CorelDRAW X7 -->
<svg xmlns="http://www.w3.org/2000/svg" xml:space="preserve" width="162.56mm" height="91.4398mm" version="1.1" style="shape-rendering:geometricPrecision; text-rendering:geometricPrecision; image-rendering:optimizeQuality; fill-rule:evenodd; clip-rule:evenodd"
viewBox="0 0 16256 9144"
 xmlns:xlink="http://www.w3.org/1999/xlink">
 <defs>
  <style type="text/css">
   <![CDATA[
    .fil0 {fill:none}
    .fil1 {fill:#FFD425}
    .fil3 {fill:#E31E24}
    .fil6 {fill:#1C1B17}
    .fil2 {fill:#0272BC}
    .fil5 {fill:#FCFCFC}
    .fil4 {fill:#FEFEFE;fill-rule:nonzero}
   ]]>
  </style>
    <clipPath id="id0">
     <path d="M0 0l8128 0 0 4572 -8128 0 0 -4572z"/>
    </clipPath>
     <clipPath id="id1">
      <path d="M0 4385l0 -4213 5197 0 0 4213 -5197 0z"/>
     </clipPath>
     <clipPath id="id2">
      <path d="M0 0l8128 0 0 4572 -8128 0 0 -4572z"/>
     </clipPath>
     <clipPath id="id3">
      <path d="M4154 987l3704 0 0 3239 -3704 0 0 -3239z"/>
     </clipPath>
     <clipPath id="id4">
      <path d="M0 0l8128 0 0 4572 -8128 0 0 -4572z"/>
     </clipPath>
     <clipPath id="id5">
      <path d="M8128 3403l0 1169 -5695 0 0 -1169 5695 0z"/>
     </clipPath>
     <clipPath id="id6">
      <path d="M8128 3403l-5695 0 0 1169 5695 0 0 -1169z"/>
     </clipPath>
     <clipPath id="id7">
      <path d="M8128 3403l0 1169 -5695 0 0 -1169 5695 0z"/>
     </clipPath>
     <clipPath id="id8">
      <path d="M0 0l8128 0 0 4572 -8128 0 0 -4572z"/>
     </clipPath>
    <clipPath id="id9">
     <path d="M8128 0l8128 0 0 4572 -8128 0 0 -4572z"/>
    </clipPath>
     <clipPath id="id10">
      <path d="M11730 0l4526 0 0 4572 -4526 0 0 -4572z"/>
     </clipPath>
     <clipPath id="id11">
      <path d="M8128 0l8128 0 0 4572 -8128 0 0 -4572z"/>
     </clipPath>
     <clipPath id="id12">
      <path d="M8961 266l2826 0 0 4218 -2826 0 0 -4218z"/>
     </clipPath>
     <clipPath id="id13">
      <path d="M8128 0l8128 0 0 4572 -8128 0 0 -4572z"/>
     </clipPath>
    <clipPath id="id14">
     <path d="M8128 4572l8128 0 0 4572 -8128 0 0 -4572z"/>
    </clipPath>
     <clipPath id="id15">
      <path d="M14317 4921l1860 0 0 4007 -1860 0 0 -4007z"/>
     </clipPath>
     <clipPath id="id16">
      <path d="M8128 4572l8128 0 0 4572 -8128 0 0 -4572z"/>
     </clipPath>
     <clipPath id="id17">
      <path d="M11510 9144l-3382 0 0 -4468 3382 0 0 4468z"/>
     </clipPath>
     <clipPath id="id18">
      <path d="M8128 4572l8128 0 0 4572 -8128 0 0 -4572z"/>
     </clipPath>
     <clipPath id="id19">
      <path d="M10397 5993l3807 0 0 3017 -3807 0 0 -3017z"/>
     </clipPath>
     <clipPath id="id20">
      <path d="M8128 4572l8128 0 0 4572 -8128 0 0 -4572z"/>
     </clipPath>
    <clipPath id="id21">
     <path d="M0 4572l8128 0 0 4572 -8128 0 0 -4572z"/>
    </clipPath>
     <clipPath id="id22">
      <path d="M254 4572l3207 0 0 4572 -3207 0 0 -4572z"/>
     </clipPath>
     <clipPath id="id23">
      <path d="M0 4572l8128 0 0 4572 -8128 0 0 -4572z"/>
     </clipPath>
     <clipPath id="id24">
      <path d="M3810 4967l4032 0 0 4032 -4032 0 0 -4032z"/>
     </clipPath>
     <clipPath id="id25">
      <path d="M0 4572l8128 0 0 4572 -8128 0 0 -4572z"/>
     </clipPath>
 </defs>
 <g id="Layer_x0020_1">
  <metadata id="CorelCorpID_0Corel-Layer"/>
  <g id="_809252576">
   <rect class="fil0" width="16256" height="9144"/>
   <g>
   </g>
   <g style="clip-path:url(#id0)">
    <g id="_669223184">
    </g>
    <g style="clip-path:url(#id1)">
     <image x="-419" y="172" width="5616" height="4212" xlink:href="Moh2_Images\Moh2_ImgID1.png"/>
    </g>
    <g style="clip-path:url(#id2)">
    </g>
    <g style="clip-path:url(#id3)">
     <image x="4154" y="987" width="3704" height="3240" xlink:href="Moh2_Images\Moh2_ImgID2.png"/>
    </g>
    <g style="clip-path:url(#id4)">
    </g>
    <g style="clip-path:url(#id5)">
    </g>
    <g style="clip-path:url(#id6)">
     <image x="2433" y="3403" width="6699" height="1179" xlink:href="Moh2_Images\Moh2_ImgID3.png"/>
    </g>
    <g style="clip-path:url(#id7)">
    </g>
    <g style="clip-path:url(#id8)">
    </g>
   </g>
   <polygon class="fil0" points="0,0 8128,0 8128,4572 0,4572 "/>
   <g>
   </g>
   <g style="clip-path:url(#id9)">
    <g>
    </g>
    <g style="clip-path:url(#id10)">
     <image x="11730" y="-76" width="4741" height="4741" xlink:href="Moh2_Images\Moh2_ImgID4.png"/>
    </g>
    <g style="clip-path:url(#id11)">
    </g>
    <g style="clip-path:url(#id12)">
     <image x="8961" y="266" width="2826" height="4218" xlink:href="Moh2_Images\Moh2_ImgID5.png"/>
    </g>
    <g style="clip-path:url(#id13)">
    </g>
   </g>
   <polygon class="fil0" points="8128,0 16256,0 16256,4572 8128,4572 "/>
   <g>
   </g>
   <g style="clip-path:url(#id14)">
    <g>
    </g>
    <g style="clip-path:url(#id15)">
     <image x="14317" y="4921" width="1859" height="4007" xlink:href="Moh2_Images\Moh2_ImgID6.png"/>
    </g>
    <g style="clip-path:url(#id16)">
    </g>
    <g style="clip-path:url(#id17)">
     <image x="6894" y="4676" width="4616" height="4616" xlink:href="Moh2_Images\Moh2_ImgID7.png"/>
    </g>
    <g style="clip-path:url(#id18)">
    </g>
    <g style="clip-path:url(#id19)">
     <image x="10397" y="5993" width="3808" height="3017" xlink:href="Moh2_Images\Moh2_ImgID8.png"/>
    </g>
    <g style="clip-path:url(#id20)">
    </g>
   </g>
   <polygon class="fil0" points="8128,4572 16256,4572 16256,9144 8128,9144 "/>
   <g>
   </g>
   <g style="clip-path:url(#id21)">
    <g>
    </g>
    <g style="clip-path:url(#id22)">
     <image x="254" y="4385" width="3207" height="4810" xlink:href="Moh2_Images\Moh2_ImgID9.png"/>
    </g>
    <g style="clip-path:url(#id23)">
    </g>
    <g style="clip-path:url(#id24)">
     <image x="3810" y="4967" width="4032" height="4032" xlink:href="Moh2_Images\Moh2_ImgID10.png"/>
    </g>
    <g style="clip-path:url(#id25)">
    </g>
   </g>
   <polygon class="fil0" points="0,4572 8128,4572 8128,9144 0,9144 "/>
   <rect class="fil1" x="6704" y="222" width="2406" height="722"/>
   <rect class="fil2" x="4298" y="222" width="2406" height="722"/>
   <rect class="fil3" x="1893" y="222" width="2406" height="722"/>
   <g>
    <path class="fil4" d="M3139 553l116 -187 -131 0c-7,0 -14,4 -18,11l-138 221c55,-15 114,-30 171,-45z"/>
    <path class="fil4" d="M2939 644l-101 161 132 0c7,0 13,-4 18,-11l108 -172c-54,7 -107,15 -157,22z"/>
    <path class="fil4" d="M3710 402c-26,-33 -60,-36 -104,-36l-210 0c-7,0 -14,4 -19,11l-84 135c89,-24 158,-42 178,-47 18,-4 37,-9 55,-14 1,0 2,0 4,-1 34,-6 66,5 73,38 6,32 -12,65 -52,70 0,0 -143,20 -315,44l-126 203 131 0c8,0 13,-3 18,-11l85 -136 133 0c40,0 84,-5 119,-18 30,-10 52,-21 78,-46 28,-27 46,-66 51,-88 11,-49 1,-84 -15,-104z"/>
    <path class="fil4" d="M2660 683l13 -7c0,0 57,-15 141,-37l170 -273 -131 0c-7,0 -14,4 -18,11l-193 308 -47 -319 -125 0 65 439 32 0 92 0 39 0c7,0 14,-4 18,-11l82 -131c-83,12 -138,20 -138,20z"/>
   </g>
   <path class="fil5" d="M5533 570c-2,-25 8,-34 1,-62 -60,9 -59,140 -124,140 -10,-35 27,-72 26,-114 -87,-4 -67,131 -147,133 -60,-76 5,-77 5,-124 0,-47 -32,12 -36,20 -14,26 -25,31 -46,49 -1,33 16,50 -21,60 -1,-77 89,-279 85,-312 -60,-9 -72,109 -83,160 -11,48 -40,168 -35,214 33,2 60,-38 70,-56 34,10 31,37 70,20 21,-8 38,-32 53,-42 0,24 -8,38 13,44 28,8 84,-48 108,-64 -25,69 -27,103 -65,137 -21,18 -72,90 -66,138 91,-9 135,-194 161,-254 14,-33 36,-58 48,-92 7,10 3,-3 5,18 2,20 -6,17 6,52 67,8 89,-25 111,-69 12,-22 21,-43 20,-71 -1,-42 -23,-38 -29,-40 -1,0 -3,0 -4,0l-8 -3c-1,0 -2,0 -4,-1 24,-44 61,-144 42,-198 -52,-2 -74,87 -91,144 -10,31 -18,62 -29,94 -6,20 -35,75 -36,79z"/>
   <path class="fil5" d="M5974 522l13 -82c-15,-19 -6,1 -27,-31 -10,-16 -17,-24 -27,-34 -41,1 -57,35 -71,70 -19,44 -10,95 -38,113l-5 -18c-1,-20 11,-35 6,-68l-36 1c-16,41 -20,79 -59,98 -10,-23 22,-80 38,-98 9,-8 6,-6 15,-12 1,0 3,-1 4,-2l7 -4c1,0 3,-1 4,-2 1,0 3,-1 4,-2 -45,-82 -151,95 -104,153 33,2 58,-25 69,-43 17,14 16,28 39,27 24,-1 32,-18 37,-34 48,15 58,-11 86,-30 0,22 -7,59 -13,80 -7,23 -23,40 -35,60 -67,113 -51,163 -20,136 6,-5 14,-16 20,-25 43,-66 46,-125 75,-181 11,-22 107,-198 131,-217 35,100 10,66 -46,107 -2,27 2,37 16,52 44,-6 126,-111 133,-162 -32,13 -27,47 -61,63 0,-45 -2,-73 -15,-110 -42,0 -48,29 -80,90 -11,22 -46,90 -60,105z"/>
   <path class="fil5" d="M4821 832c115,-2 251,-90 299,-147 133,-158 -98,-181 -132,-251 5,-46 49,-60 90,-73 97,-32 159,2 151,-75 -79,-2 -182,53 -228,87 -23,17 -59,72 -29,113 52,73 184,78 148,166 -45,108 -265,127 -270,130 -13,7 -27,37 -29,50z"/>
   <path class="fil5" d="M5619 744c24,-6 81,-41 115,-55l94 -33c24,-8 20,-2 26,-22l-14 -4c-24,-3 -110,21 -132,27 -46,15 -99,26 -89,87z"/>
   <path class="fil2" d="M5596 607c30,-6 47,-44 52,-73 6,-32 -1,-30 -3,-37 -1,-1 -2,-3 -3,-4 -46,-5 -62,80 -46,114z"/>
   <path class="fil2" d="M5892 521c48,-13 30,-72 71,-97 -31,-14 -42,0 -56,22 -11,19 -22,49 -15,75z"/>
   <polygon class="fil6" points="6992,489 7044,581 7098,676 7059,676 7025,616 6992,559 6959,616 6925,676 6887,676 6940,581 "/>
   <polygon class="fil6" points="8619,489 8671,581 8724,676 8686,676 8652,616 8619,559 8586,616 8552,676 8513,676 8567,581 "/>
   <polygon class="fil6" points="7353,490 7386,490 7386,676 7353,676 "/>
   <polygon class="fil6" points="7647,490 7812,490 7831,521 7756,521 7756,676 7724,676 7724,521 7666,521 "/>
   <polygon class="fil6" points="8738,490 8902,490 8921,521 8846,521 8846,676 8814,676 8814,521 8756,521 "/>
   <path class="fil6" d="M7967 490c51,0 93,42 93,93 0,51 -42,93 -93,93 -51,0 -93,-42 -93,-93 0,-51 42,-93 93,-93zm0 33c33,0 60,27 60,60 0,33 -27,60 -60,60 -33,0 -60,-27 -60,-60 0,-33 27,-60 60,-60z"/>
   <path class="fil6" d="M8217 490l9 0 20 33 -31 0c-33,0 -60,27 -60,61l0 0c0,33 27,60 60,60l31 0 0 31 -29 0c-52,0 -93,-41 -93,-92l0 0c0,-51 41,-93 93,-93z"/>
   <path class="fil6" d="M8452 549l0 0zm-58 -58c32,0 58,26 58,58 0,26 -16,48 -40,56l41 71 -40 0 -39 -68 -19 0 -19 -31 59 0c14,0 26,-12 26,-27 0,-14 -12,-26 -26,-26l-68 0 -20 -33 87 0z"/>
   <path class="fil6" d="M7266 549l0 0zm-59 -58c33,0 59,26 59,58 0,26 -17,48 -40,56l41 71 -40 0 -39 -68 -19 0 -19 -31 58 0c15,0 26,-12 26,-27 0,-14 -11,-26 -26,-26l-67 0 -20 -33 86 0z"/>
   <path class="fil6" d="M7567 489l20 33 -58 0c-42,1 -34,46 -7,45l19 1c69,2 61,108 -1,108l-48 0 -18 -32 63 0c29,0 29,-43 2,-44l-11 0c-83,-1 -70,-111 -5,-111 -3,0 44,0 44,0z"/>
  </g>
 </g>
</svg>
