<?xml version="1.0" encoding="UTF-8"?>
<!DOCTYPE svg PUBLIC "-//W3C//DTD SVG 1.1//EN" "http://www.w3.org/Graphics/SVG/1.1/DTD/svg11.dtd">
<!-- Creator: CorelDRAW X7 -->
<svg xmlns="http://www.w3.org/2000/svg" xml:space="preserve" width="162.56mm" height="91.4398mm" version="1.1" style="shape-rendering:geometricPrecision; text-rendering:geometricPrecision; image-rendering:optimizeQuality; fill-rule:evenodd; clip-rule:evenodd"
viewBox="0 0 16256 9144"
 xmlns:xlink="http://www.w3.org/1999/xlink">
 <defs>
  <style type="text/css">
   <![CDATA[
    .fil0 {fill:none}
    .fil1 {fill:none;fill-rule:nonzero}
    .fil3 {fill:#FEFEFE}
    .fil7 {fill:#2B2A29;fill-rule:nonzero}
    .fil6 {fill:#E31E24;fill-rule:nonzero}
    .fil2 {fill:#C02222;fill-rule:nonzero}
    .fil5 {fill:#25292A;fill-rule:nonzero}
    .fil4 {fill:black;fill-rule:nonzero}
    .fil8 {fill:url(#id2)}
   ]]>
  </style>
     <clipPath id="id0" style="clip-rule:nonzero">
      <rect width="8124" height="9134"/>
     </clipPath>
      <clipPath id="id1" style="clip-rule:nonzero">
       <rect x="8124" width="8128" height="9133"/>
      </clipPath>
  <linearGradient id="id2" gradientUnits="userSpaceOnUse" x1="12794.4" y1="4907.81" x2="14400" y2="4557.48">
   <stop offset="0" style="stop-opacity:1; stop-color:#CBCBC5"/>
   <stop offset="0.768627" style="stop-opacity:1; stop-color:#E4E4E1"/>
   <stop offset="1" style="stop-opacity:1; stop-color:#FEFEFE"/>
  </linearGradient>
 </defs>
 <g id="Layer_x0020_1">
  <metadata id="CorelCorpID_0Corel-Layer"/>
  <g id="_809632352">
   <rect class="fil0" x="-4" width="16256" height="9144"/>
   <g>
    <g style="clip-path:url(#id0)">
     <image x="0" y="0" width="8124" height="9134" xlink:href="Moh3_Images\Moh3_ImgID1.png"/>
    </g>
    <polygon class="fil1" points="-1,1 8124,1 8124,9134 -1,9134 "/>
    <path class="fil2" d="M5986 1086c-1,0 -215,-238 -28,-426 124,-125 508,-253 887,-318 342,-60 682,-68 823,23 39,26 81,64 110,121 23,44 38,99 38,167 0,138 -50,282 -133,406 -239,356 -690,401 -1102,327 -220,-40 -438,-130 -595,-299l0 -1z"/>
    <path class="fil3" d="M6255 723l0 0 3 0 0 0 2 0 0 0 3 0 0 0 2 0 2 1 0 0 3 0 0 0 2 0 0 0 2 0 0 0 3 1 0 0 2 0 0 0 2 0 0 0 2 1 0 0 2 0 0 0 2 1 2 0 1 0 1 1 1 0 1 0 1 0 1 1 1 0 1 1 0 0 2 0 0 0 2 1 0 0 2 1 0 0 2 1 0 0 2 1 0 0 1 0 0 1 2 0 0 0 2 1 0 0 1 1 0 0 2 1 0 1 1 1 1 0 1 1 0 0 2 1 0 0 1 1 0 0 1 1 0 0 2 2 0 0 1 1 0 0 1 1 0 0 2 2 0 0 1 1 0 0 1 1 0 1 1 1 0 0 1 1 0 0 1 2 0 0 1 1 0 1 1 1 0 0 1 2 0 0 1 1 0 0 0 2 0 0 1 2 0 0 1 1 0 0 0 2 0 0 1 2 0 0 1 2 0 0 0 1 0 0 0 2 1 0 0 2 0 0 0 2 0 0 1 2 0 0 0 2 0 0 0 2 0 0 0 2 0 0 0 2 0 0 0 2 0 0 0 2 0 0 0 2 0 0 0 3 0 0 0 2 0 0 0 2 0 0 0 2 0 1 -1 2 0 0 0 2 0 0 0 2 0 0 -1 2 0 0 0 2 0 0 -1 2 0 0 0 2 0 0 -1 2 0 0 -1 2 0 0 0 2 0 0 -1 2 0 0 -1 2 0 0 -1 2 0 0 -1 2 0 0 -1 1 0 0 -1 2 0 0 -1 2 0 0 -1 1 0 0 -1 2 0 0 -2 1 0 0 -1 2 0 0 -1 1 0 0 -2 2 0 0 -1 1 0 0 -2 2 0 0 -1 1 0 0 -2 1 0 0 -2 1 0 0 -1 1 0 1 -2 1 0 0 -2 1 0 0 -2 1 0 0 -2 1 0 0 -2 1 0 0 -2 1 0 0 -2 1 0 0 -2 0 0 0 -2 1 0 0 -2 1 0 0 -2 1 0 0 -3 0 0 0 -2 1 0 0 -2 1 0 0 -3 0 0 0 -2 1 0 0 -3 0 0 0 -2 1 0 0 -3 0 0 0 -3 1 0 0 -2 0 0 0 -3 0 0 0 -3 0 0 0 -3 1 0 0 -2 0 0 0 -3 0 0 0 -3 0 -3 0 0 0 -3 0 0 0 -3 0 -21 0 0 56 0 0 0 2 0 2 0 2 0 2 0 1 0 2 1 1 0 1 0 1 0 1 1 1 0 1 1 1 0 0 0 1 1 0 0 0 0 1 0 0 1 0 1 0 1 1 0 0 1 0 2 1 1 0 1 0 2 0 1 1 2 0 2 0 2 0 4 0 4 0 0 4 0 12 0 4 -4 0 -112 0 -4 0 0 -4 0 -12 0 -4 4 0 5 0 2 0 1 0 2 0 2 -1 1 0 2 0 1 0 1 -1 1 0 1 0 1 -1 1 0 0 0 1 -1 0 0 1 0 0 -1 0 -1 1 0 0 -1 0 -1 1 -1 0 -1 0 -1 1 -2 0 -1 0 -2 0 0 0 -1 0 -2 0 -2 0 -2 0 0 0 -163 0 0 0 -2 0 -1 0 -2 0 -2 0 -2 0 -1 -1 -1 0 -2 0 -1 -1 -1 0 -1 0 -1 -1 0 0 -1 -1 0 0 0 0 -1 -1 0 0 -1 -1 0 -1 0 -1 -1 -1 0 -1 0 -1 0 -2 -1 -1 0 0 0 -2 0 -2 0 -1 0 -2 0 -5 0 -4 0 0 -4 0 -13 0 -4 4 0 122 0 0 0zm-35 123l0 0 13 0 2 0 0 0 1 0 1 0 2 0 1 0 2 0 1 0 1 0 1 -1 2 0 1 0 1 -1 1 0 1 0 0 0 1 -1 2 0 1 0 1 -1 1 0 1 -1 1 -1 1 0 1 -1 1 0 1 -1 1 -1 0 0 1 -1 0 0 1 -1 1 -1 1 0 1 -1 0 0 0 -1 1 -1 1 -1 1 -1 0 -1 1 -1 1 -1 0 -1 1 -1 0 0 1 -1 0 -1 1 -1 0 -1 1 -1 0 -1 1 -2 0 -1 0 -1 0 0 1 -1 0 0 0 -2 0 -1 1 -1 0 0 0 -2 0 -1 0 -1 0 0 0 -2 0 0 0 -1 0 0 1 -2 0 -1 0 -2 0 -2 0 -1 0 -1 0 -2 0 -1 0 -1 0 -1 -1 -2 0 -1 0 -1 0 -1 0 -1 -1 -1 0 0 0 -2 0 0 0 -1 -1 -1 0 -1 0 -1 -1 -1 0 -1 -1 -1 0 -1 0 0 -1 -1 -1 -1 0 -1 0 0 -1 -1 0 -1 -1 -1 0 0 -1 0 0 -1 -1 -1 -1 -1 0 0 -1 -1 0 0 -1 -1 0 0 -1 0 0 -1 -1 -1 0 0 -1 0 0 0 -1 -1 -1 0 0 0 -1 -1 0 0 -1 0 -1 -1 -1 0 0 0 -1 -1 -1 0 -1 -1 -1 0 -1 0 0 0 -1 -1 -1 0 -1 0 -1 -1 -1 0 -2 0 -1 0 -1 0 -1 0 -2 -1 -1 0 -1 0 -2 0 -1 0 -1 0 -2 0 -2 0 -1 0 -2 0 -1 0 -1 1 -1 0 -1 0 -1 0 -1 0 0 0 0 0 -1 1 0 0 0 0 -1 0 0 0 0 0 0 0 0 0 0 1 0 0 0 0 -1 1 0 0 0 1 0 0 0 1 0 1 0 1 0 1 0 1 0 1 0 0 0 85z"/>
    <path class="fil3" d="M6462 941l0 0 0 0 0 -1 0 -1 0 0 -1 -1 0 0 0 -1 0 0 0 -1 0 0 0 -1 0 0 0 -1 0 0 1 -1 0 0 0 -1 0 0 0 -1 0 0 0 -1 0 0 0 -1 1 0 0 -1 0 0 0 -1 0 -1 1 0 0 -1 0 0 0 -1 0 0 1 -1 0 -1 0 0 1 -1 0 0 0 -1 0 0 1 -1 0 0 1 -1 0 0 0 -1 0 0 1 -1 0 0 1 -1 0 0 1 -2 0 0 1 -1 1 0 1 -2 1 -1 0 0 2 -2 0 0 1 -1 0 0 2 -2 0 0 1 -2 0 0 2 -2 0 0 0 0 0 0 -1 -1 -1 0 -1 -1 0 0 -2 -1 0 -1 -2 -1 0 0 -1 -1 0 0 -2 -1 0 0 -1 -2 -1 0 -1 -1 0 0 -1 -1 0 -1 -2 -1 0 0 -1 -1 0 -1 -1 -1 0 0 -1 -2 0 0 -1 -1 0 0 -1 -2 0 0 -1 -2 0 0 -1 -2 0 0 -1 -1 0 0 0 -2 0 0 -1 -2 0 0 -1 -2 0 0 0 -2 0 0 0 -2 0 0 -1 -2 0 0 0 -2 0 0 0 -2 0 0 0 -2 0 0 0 -2 0 0 0 -2 0 0 0 -1 0 0 0 -2 0 0 0 -1 0 -1 0 -1 0 0 1 -2 0 0 0 -1 0 0 0 -2 0 0 0 -1 0 0 1 -2 0 0 0 -1 0 0 1 -2 0 0 0 -1 0 0 1 -2 0 0 1 -1 0 0 0 -2 0 0 1 -1 0 0 1 -1 0 0 1 -2 0 0 0 -1 0 0 1 -1 0 0 1 -2 0 0 1 -1 0 0 1 -1 0 0 1 -1 0 0 1 -1 0 -1 1 -1 1 0 1 -1 0 0 1 -1 1 -1 0 0 1 -1 1 0 1 -1 0 0 1 -1 0 0 2 -1 0 0 1 -1 0 0 1 -1 0 0 2 -1 0 0 1 -1 0 0 2 0 0 0 1 -1 1 0 1 -1 0 0 2 -1 0 0 1 0 0 0 2 -1 0 0 2 -1 0 0 1 0 0 0 2 -1 0 0 2 0 0 0 2 -1 0 0 1 0 0 0 2 -1 0 0 2 0 0 0 2 0 0 0 2 -1 0 0 2 0 0 0 2 0 0 0 2 -1 0 0 2 0 0 0 2 0 0 0 2 0 0 0 2 0 0 0 2 0 0 0 2 0 0 0 2 0 0 0 1 0 0 0 1 0 1 0 0 0 1 0 1 0 0 0 1 0 1 0 0 0 1 0 1 0 0 0 1 0 1 0 0 0 1 0 1 1 0 0 1 0 1 0 0 0 1 0 1 0 0 0 1 0 1 1 0 0 2 0 0 0 1 0 1 0 0 0 1 0 1 1 0 0 1 0 1 0 0 0 1 0 1 1 2 0 0 0 1 0 1 1 1 0 49 0 4 0 0 4 0 26 0 4 -4 0 -16 0 0 0 1 1 0 0 0 1 0 1 0 0 1 1 0 0 0 1 0 0 0 1 0 0 1 1 0 0 0 1 0 1 0 0 1 1 0 1 0 0 0 1 0 0 0 1 0 0 0 1 0 0 1 1 0 0 0 1 0 1 0 0 0 1 0 0 0 1 0 1 0 0 0 0 0 1 0 0 0 2 0 0 0 1 0 0 0 2 0 0 0 1 0 0 0 2 0 0 -1 1 0 0 0 2 0 0 0 1 0 0 0 2 -1 0 0 1 0 0 0 1 0 1 -1 1 0 0 0 1 0 0 -1 2 0 0 0 1 0 0 -1 1 0 0 -1 1 0 1 0 1 0 0 -1 1 0 0 -1 1 0 0 -1 1 0 0 -1 2 0 0 -1 1 0 0 -1 1 0 0 -1 1 0 0 -1 1 0 0 -1 1 0 0 -1 1 0 0 -1 1 0 0 -1 1 0 0 -1 1 0 0 -2 1 0 0 -1 1 0 0 -1 1 0 0 -2 1 0 0 -1 1 0 0 -1 1 0 0 -2 0 0 1 -1 0 0 0 -2 1 0 0 -1 1 0 0 -2 0 0 0 -1 1 0 0 -2 1 0 0 -1 0 0 0 -2 1 0 0 -1 0 -1 0 -1 1 0 0 -2 0 0 0 -1 1 0 0 -2 0 0 0 -2 0 0 0 -2 1 -1 0 0 0 -2 0 0 0 -2 1 0 0 -2 0 0 0 -2 0 0 0 -1 0 -1 0 -1 0 0 0 -2 0 0 0 -2 0 0 0 -2 0 0 0 -2 0 0 0 -2 0 -1 0 0 0 -2 0 0 0 -2 0 0 0 -1 0 -2 0 0 0 -1 0 -1 0 -1 0 -2 -1 0 0 -1 0 0 0 -2 0 0 0 -1 0 0 0 -2 -1 0 0 -1 0 -1 1 -1 1 -1 1 -1 1 0 1 -1 0 -1 1 0 1 0 1 0 0 -1 1 0 0 0 1 0 0 0 0 0 1 0 1 0 0 1 0 0 1 0 0 1 1 1 0 0 0 1 0 0 0 0 0 1 0 0 0 0 1 0 -1 1 1 0 0 0 0 1 0 0 0 1 0 1 0 0 0 1 0 1 0 0 0 1 1 0 0 2 0 1 0 0 0 1 0 1 0 1 0 0 0 2 0 1 0 1 0 2 0 1 0 2 1 0 0 2 0 1 0 2 0 2 0 1 0 0 0 2 0 2 0 0 0 3 0 0 0 2 0 0 0 2 0 2 0 1 0 2 0 2 1 0 0 2 0 0 0 2 0 2 0 0 0 2 0 0 0 2 1 0 0 2 0 2 0 0 0 2 0 0 0 2 1 0 0 2 0 0 0 1 0 0 0 2 1 0 0 2 0 0 0 1 0 0 0 2 1 0 0 1 0 1 0 1 1 0 0 1 0 1 0 1 1 0 0 1 0 0 0 2 1 0 0 1 0 0 0 1 1 0 0 2 1 0 0 1 0 0 0 1 1 0 0 2 1 0 1 2 1 0 0 2 2 0 0 2 1 0 0 2 2 0 0 1 2 1 0 1 2 0 1 1 2 0 0 1 2 0 0 1 2 0 0 1 3 0 0 1 2 0 0 0 3 0 0 0 3 1 0 0 2 0 1 0 2 0 0 0 2 0 0 0 2 0 0 0 2 0 0 -1 2 0 0 0 2 0 0 0 1 0 1 -1 1 0 0 0 2 0 0 0 2 0 0 -1 2 0 0 -1 1 0 0 0 2 0 0 -1 2 0 0 -1 1 0 1 0 1 0 0 -1 2 0 0 -1 1 0 0 -1 2 0 0 -1 2 0 0 -1 1 0 0 -1 2 0 0 -1 1 -1 0 -1 2 0 0 -1 1 0 0 -1 1 0 1 -2 1 0 0 -1 1 0 0 -1 2 -1 0 -1 1 0 0 -2 1 0 0 -1 2 0 0 -2 1 0 0 -2 1 0 0 -1 1 0 0 -2 1 0 0 -2 2 0 0 -2 1 0 0 -2 1 0 0 -1 1 0 0 -2 1 0 0 -2 1 0 0 -2 0 0 0 -2 1 0 0 -2 1 -2 1 0 0 -2 0 0 1 -2 0 0 0 -3 1 0 0 -2 0 0 0 -2 1 0 0 -2 0 0 1 -2 0 0 0 -2 0 -1 0 -2 1 0 0 -2 0 0 0 -2 1 0 0 -3 0 0 0 -2 0 0 0 -2 0 0 0 -3 0 0 0 -2 1 0 0 -3 0 0 0 -2 0 0 0 -3 0 0 0 -2 0 0 0 -2 0 -1 0 0 0 -2 0 -2 -1 0 0 -2 0 0 0 -2 0 -1 0 0 0 -2 0 -2 0 0 0 -1 -1 -1 0 -1 0 0 0 -2 0 0 0 -1 0 -1 0 -1 -1 -2 0 0 0 -1 0 0 0 -2 -1 0 0 -1 0 0 0 -2 -1 0 0 -1 0 0 0 -2 0 0 0 -1 -1 0 0 -2 0 0 0 -1 -1 0 0 -2 -1 0 0 -1 0 0 0 -1 -1 0 0 -2 0 0 0 -1 -1 0 0 -1 -1 -1 0 -1 0 -2 -2 0 0 -2 -1 0 0 -2 -2 -1 0 -1 -1 -1 -1 -1 -1 -1 0 -1 -2 0 0 -2 -2 0 0 -1 -2 0 0 -2 -2 0 0 -1 -2 0 0 -1 -2 0 0 -1 -2 0 0 0 -2 0 -1 -1 -2 0 0 0 -2 0 0 0 -2 0 -1 0 -1 0 0 0 -1 0 0 0 -1 0 0 0 -1 0 -1 1 -1 0 0 0 -1 0 0 0 -1 0 0 1 -2 0 0 0 -1 0 0 1 -1 0 0 0 -1 0 0 1 -2 0 0 0 -1 0 0 1 -1 0 0 1 -1 0 0 1 -1 0 -1 0 -1 0 0 1 -1 0 0 1 -1 0 0 1 -2 0 0 2 -1 0 0 1 -2 0 0 1 -1 0 0 2 -2 0 0 1 -1 0 0 2 -2 0 0 1 -2 0 0 2 -2 0 0 2 -2 0 0 0 0 0 0 0 0 -1 -1 0 0 -1 -1 0 0 -1 0 0 0 -1 -1 0 0 -1 -1 0 0 -1 -1 0 0 -1 -1 0 0 0 0 0 -1 -1 0 0 0 -1 -1 0 0 0 -1 0 0 -1 -1 0 0 -1 -1 0 0 0 -1 0 0 0 -1 -1 0 0 -1 0 0 0 -1 0 0 -1 -1 0 0 0 -1 0 -1 0 0 0 -1zm36 32l0 0 0 1 -1 1 -1 2 0 1 -1 1 0 1 0 1 0 0 -1 1 0 1 0 1 0 1 0 1 0 2 0 1 0 1 0 1 1 2 0 1 1 1 0 1 1 1 0 1 1 1 1 1 1 0 1 1 1 1 2 1 0 0 1 1 1 0 0 0 1 1 1 0 1 0 0 1 1 0 1 0 1 0 1 1 0 0 1 0 0 0 1 0 1 0 1 1 1 0 1 0 2 0 0 0 1 0 0 0 1 1 1 0 1 0 1 0 0 0 2 0 1 0 1 0 2 0 1 0 2 0 1 0 2 0 1 0 2 0 1 0 2 0 1 0 1 0 2 0 1 0 0 0 1 0 0 0 2 0 1 -1 1 0 0 0 2 0 0 0 1 0 0 0 1 0 1 -1 0 0 1 0 2 0 1 0 0 0 1 -1 0 0 1 0 1 0 0 0 1 -1 0 0 1 0 1 0 1 -1 1 0 1 0 1 -1 1 0 0 -1 1 0 2 -1 1 -1 1 -1 2 -1 1 -1 1 -1 1 -1 0 -1 1 -1 1 -1 0 -1 0 -1 1 -2 0 -1 0 -1 0 -1 0 -2 0 -1 0 -1 -1 -1 0 0 -1 -1 0 -1 -1 0 0 -1 -1 0 0 0 0 0 -1 0 -1 -1 0 0 -1 0 -1 0 0 0 0 -1 -1 0 -1 0 -1 0 -1 0 0 0 -2 -1 -1 0 0 0 -1 0 -1 0 0 0 -1 0 -1 0 0 0 0 0 -2 0 0 0 -1 0 0 0 -1 0 0 0 -1 0 -1 0 -1 0 -1 0 -1 0 -1 0 -1 0 -2 0 0 0 -3 0 -2 0 0 0 -2 0 0 0 -2 0 -2 0 0 0 -3 -1 -2 0 0 0 -2 0 0 0 -2 0 -2 0 0 0 -2 0 -2 0 -2 0 -2 0 0 0 -2 0 -1 -1 -2 0 -2 0 0 0 -2 0 0 0 -2 0 -1 0 -2 0 0 0 -2 0 0 0 -2 -1 0 0 -1 0 -2 0 0 0 -2 0 -1 0 0 0 -1 0 -1 1 -1 1zm11 -122l0 0 0 2 0 2 0 2 0 0 0 2 1 2 0 2 0 2 0 0 1 1 0 0 0 2 0 0 0 1 1 0 0 2 1 1 0 1 1 2 1 1 0 1 1 1 1 1 1 1 1 1 0 0 1 1 1 0 1 1 1 0 1 1 1 0 1 0 1 1 0 0 1 0 0 0 2 0 1 0 1 0 2 0 0 0 1 0 1 -1 1 0 1 0 1 -1 1 0 1 -1 1 0 1 -1 1 -1 0 0 1 -1 1 -1 1 -1 1 -1 0 -1 1 -2 1 -1 0 -1 0 0 1 -2 0 -1 1 -2 0 -1 1 -2 0 0 0 -2 0 0 0 -2 0 -2 0 -2 1 -2 0 -2 0 -2 -1 -2 0 -2 0 -2 0 -1 0 -2 -1 -1 0 -2 -1 -2 0 -1 -1 -1 0 -2 -1 -1 0 -1 -1 -1 0 0 -1 -1 -1 -1 -1 -1 0 -1 -1 0 -1 -1 -1 -1 -1 0 -1 -1 0 0 -1 0 -1 -1 -1 0 -1 0 -1 0 -1 -1 0 1 -2 -1 -1 0 -1 0 -1 1 0 -1 -1 1 -2 0 -1 0 -1 0 -1 1 -1 0 -1 1 -1 0 -1 1 0 0 -1 1 -1 1 -1 1 -1 1 0 1 -1 1 0 0 -1 1 0 1 0 0 -1 2 0 1 -1 2 0 1 -1 1 0 2 0 0 0 2 -1 1 0 2 0 2 0 2 0 2z"/>
    <path class="fil3" d="M6775 920l0 0 -1 1 0 0 -1 2 0 0 -1 1 0 0 -1 2 0 0 0 2 0 0 -1 1 0 0 -1 1 0 1 -1 1 0 0 -1 1 0 0 -1 2 0 0 -1 1 0 0 -1 2 0 0 -1 1 0 0 -1 1 -1 1 0 1 -1 1 0 0 -1 1 0 0 -1 1 0 0 -1 1 0 0 -1 2 0 0 -1 1 0 0 -1 1 -1 1 -1 0 -1 1 0 0 -1 1 0 0 -1 1 0 0 -1 1 0 0 -1 1 0 0 -1 1 -1 0 -1 1 0 0 -1 1 0 0 -1 1 0 0 -1 0 -1 0 -1 1 0 0 -1 1 0 0 -1 1 0 0 -2 0 0 0 -1 1 0 0 -1 1 0 0 -2 0 0 0 -1 1 0 0 -1 1 -1 0 -1 0 0 0 -1 1 0 0 -2 0 0 0 -1 1 0 0 -2 0 0 0 -1 0 0 0 -2 1 -1 0 0 0 -1 0 -1 0 -1 1 0 0 -1 0 0 0 -2 0 0 0 -2 0 -1 1 0 0 -2 0 0 0 -1 0 0 0 -2 0 0 0 -1 0 -2 0 0 0 -2 0 0 0 -2 0 0 0 -2 0 0 0 -1 0 -1 0 -1 0 0 0 -2 0 0 -1 -2 0 0 0 -2 0 0 0 -2 0 0 0 -2 -1 0 0 -2 0 0 0 -1 -1 -1 0 -1 0 0 0 -2 -1 0 0 -2 -1 0 0 -1 0 0 0 -2 -1 0 0 -2 -1 0 0 -1 -1 0 0 -2 -1 0 0 -1 -1 -1 0 -1 -1 0 0 -2 -1 0 0 -1 -1 0 0 -1 -1 -1 0 -1 -1 0 0 -1 -1 0 0 -2 -1 0 -1 -1 -1 0 0 -1 -1 0 0 -2 -2 0 0 -1 -1 0 0 -1 -2 0 0 -1 -1 0 0 -2 -2 0 0 -1 -1 0 0 -1 -2 0 0 -1 -2 0 0 -1 -1 0 0 -1 -2 0 0 -1 -2 0 0 -1 -1 0 -1 0 -1 0 0 -1 -2 0 0 -1 -2 0 0 -1 -2 0 0 0 -2 0 0 -1 -2 0 0 -1 -2 0 0 0 -2 0 0 -1 -2 0 0 0 -2 0 0 -1 -2 0 0 0 -2 0 0 -1 -2 0 0 0 -2 0 0 0 -2 0 -1 -1 -2 0 0 0 -2 0 0 0 -2 0 0 0 -2 0 -1 0 -2 0 -2 0 0 0 -3 0 0 -1 -2 0 0 1 -2 0 0 0 -3 0 0 0 -2 0 0 0 -3 0 0 0 -2 0 0 0 -2 0 0 0 -2 0 0 1 -3 0 0 0 -2 0 0 0 -2 0 0 1 -2 0 0 0 -2 0 0 1 -2 0 -1 0 -2 0 0 1 -2 0 0 1 -2 0 0 0 -2 0 0 1 -2 0 0 1 -2 0 0 1 -2 0 0 0 -1 0 -1 1 -1 0 0 1 -2 0 0 1 -2 0 0 1 -2 0 0 1 -2 0 0 1 -1 0 0 1 -2 0 0 1 -2 1 0 1 -1 0 0 1 -2 0 0 1 -2 0 0 1 -1 1 0 1 -2 0 0 1 -1 0 0 2 -2 0 0 1 -1 0 0 2 -1 0 0 1 -2 0 0 1 -1 1 0 1 -1 0 0 2 -1 0 0 1 -1 0 0 2 -1 0 0 1 -1 1 0 1 -1 0 0 2 -1 0 0 1 -1 1 0 1 -1 0 0 2 0 0 -1 2 0 0 0 2 -1 0 0 1 0 0 0 2 -1 0 0 2 0 0 0 2 -1 0 0 2 0 0 0 2 -1 0 0 2 0 0 0 2 0 0 0 2 0 0 0 2 0 0 0 2 0 0 0 2 0 0 0 2 0 0 0 2 0 0 0 2 0 0 0 2 0 0 0 1 0 1 0 1 0 0 0 2 0 0 0 2 1 0 0 2 0 0 0 2 0 0 0 1 1 1 0 1 0 0 0 2 1 0 0 2 0 0 0 1 1 0 0 2 0 0 0 2 1 0 0 1 1 0 0 2 0 0 0 1 1 0 0 2 1 0 0 1 1 0 0 2 1 0 0 1 1 0 0 2 1 0 0 1 1 0 0 1 1 0 0 2 1 0 0 1 1 0 0 1 1 0 0 1 1 0 0 1 1 1 0 1 2 0 0 1 1 0 0 1 1 0 0 1 2 0 0 1 1 0 0 1 1 0 1 1 1 0 0 1 1 0 0 1 2 0 0 1 1 0 1 0 1 0 0 1 2 1 1 0 0 1 2 0 0 0 2 0 0 1 1 0 0 1 2 0 0 0 2 0 0 1 2 0 0 0 2 0 0 1 1 0 1 0 1 0 0 1 2 0 0 0 2 0 0 0 2 0 0 1 2 0 0 0 2 0 0 0 2 0 0 0 2 0 1 1 2 0 0 0 2 0 0 0 4 0 4 -4 0 -93 0 0 2 0 1 0 0 0 2 0 2 1 1 0 0 0 2 0 2 0 0 0 1 0 0 1 2 0 1 0 2 1 1 0 1 0 0 0 2 1 1 0 0 0 2 1 1 0 1 1 2 0 1 0 0 1 1 0 0 0 1 1 1 1 1 0 1 1 2 0 1 1 1 1 1 1 1 2 2 1 2 2 1 2 2 1 1 2 1 2 1 2 1 2 1 2 0 2 1 2 0 2 1 0 -1 2 1 3 0 1 0 1 0 2 0 1 -1 1 0 0 0 1 0 0 0 1 0 0 0 2 -1 1 0 1 0 1 -1 2 0 0 0 1 -1 1 -1 1 0 2 -1 0 0 1 -1 1 0 0 0 1 -1 2 -1 1 -1 1 -1 0 0 1 -1 0 0 2 -2 1 -1 1 -1 2 -1 0 0 1 -2 0 0 1 -1 1 -2 2 -1 3 -4 2 -3 3 3 10 7 2 2 -1 3 -1 3 0 0 -1 2 0 0zm-55 -72l0 0 0 -1 0 -2 0 0 0 -2 0 -2 0 -2 -1 -1 0 -2 -1 -2 0 -1 0 -1 -1 -1 -1 -2 0 -1 -1 -1 0 -1 -1 -1 -1 -1 0 0 0 0 -1 -1 -1 -1 -1 0 -1 -1 0 0 -1 -1 -1 0 -1 -1 0 0 -1 0 -1 0 -1 0 -1 0 -2 0 -1 0 -1 0 -1 0 -1 0 -1 1 -1 0 -1 0 -1 1 -1 0 -1 1 0 0 -1 1 -1 0 -1 1 -1 1 -1 1 0 1 -1 2 -1 1 -1 1 0 2 -1 1 0 0 -1 2 0 1 -1 2 0 1 0 0 -1 2 0 2 0 2 0 2 0 0 42 0z"/>
    <path class="fil3" d="M6860 794l0 0 2 0 0 0 2 0 0 0 3 0 0 0 2 0 0 0 2 0 0 0 2 0 0 0 2 0 1 0 2 0 0 0 2 0 0 0 2 1 0 0 2 0 0 0 2 1 0 0 2 0 0 0 2 0 0 1 2 0 0 0 2 1 0 0 2 0 0 0 2 1 0 0 2 1 0 0 2 1 0 0 2 1 0 0 2 1 0 0 2 1 0 0 2 1 0 0 1 1 1 0 1 1 0 0 2 1 0 0 2 1 0 0 1 1 1 1 1 1 0 0 2 1 0 0 1 2 0 0 2 1 0 0 2 2 0 0 1 1 0 0 2 2 0 0 1 1 0 0 1 2 0 0 2 1 0 0 1 2 0 0 1 2 0 0 1 2 0 0 2 1 0 0 1 2 0 0 1 2 0 0 1 2 0 0 1 2 0 0 1 2 0 0 1 1 0 1 0 1 0 0 1 2 0 1 1 1 0 1 1 1 0 1 0 2 0 0 1 2 0 0 0 2 0 0 1 2 0 0 0 2 0 0 1 2 0 0 0 3 0 0 1 2 0 0 0 2 0 0 0 2 0 0 0 3 0 0 1 2 0 0 0 3 0 0 0 2 0 0 0 2 0 0 0 3 0 0 0 2 0 0 0 2 0 0 0 2 0 1 -1 2 0 0 0 2 0 0 0 2 0 0 -1 2 0 0 0 2 0 1 0 2 0 0 -1 2 0 0 0 2 0 0 -1 2 0 0 -1 2 0 0 0 2 0 0 -1 2 0 0 -1 2 0 0 -1 2 0 0 0 2 0 0 -1 2 0 0 -1 2 0 0 -1 2 0 0 -1 1 0 0 -1 2 0 0 -2 2 0 0 -1 2 0 0 -1 1 0 0 -1 2 0 0 -2 2 0 0 -1 1 0 0 -1 2 -1 0 -1 2 0 0 -1 1 0 0 -2 1 0 0 -1 2 0 0 -2 1 0 0 -2 1 0 1 -1 1 0 0 -2 1 0 0 -1 1 -1 0 -1 1 0 0 -2 1 0 0 -2 1 0 0 -2 1 0 0 -1 1 0 0 -2 1 0 0 -2 1 0 0 -2 1 0 0 -2 0 0 0 -2 1 0 0 -2 1 0 0 -2 0 0 0 -2 1 0 0 -2 0 0 0 -2 1 0 0 -2 0 0 0 -3 0 0 0 -2 0 0 1 -2 0 0 0 -2 0 0 0 -2 0 -1 0 -2 0 0 0 -2 0 0 0 -2 0 0 0 -3 0 0 0 -2 0 0 0 -2 0 0 0 -2 0 0 -1 -2 0 -1 0 -2 0 0 0 -2 0 0 0 -2 -1 0 0 -2 0 0 0 -2 -1 0 0 -2 0 0 0 -2 -1 0 0 -2 -1 0 0 -2 0 0 0 -2 -1 0 0 -2 -1 0 0 -2 -1 0 0 -2 -1 0 0 -1 -1 -1 0 -1 -1 0 0 -2 -1 0 0 -2 -1 0 0 -2 -1 0 0 -1 -1 0 0 -2 -2 0 0 -2 -1 0 0 -1 -1 -1 0 -1 -2 0 0 -2 -1 0 0 -1 -2 0 0 -2 -1 0 0 -1 -2 0 0 -2 -1 0 0 -1 -2 0 0 -1 -2 0 0 -2 -1 0 0 -1 -2 0 0 -1 -2 0 0 -1 -1 0 0 -1 -2 0 0 -1 -2 0 0 -1 -2 0 0 -1 -2 0 0 -1 -2 0 0 -1 -2 0 0 -1 -2 0 0 -1 -1 0 -1 -1 -1 0 -1 0 -2 0 0 -1 -2 0 0 -1 -2 0 0 0 -2 0 0 -1 -2 0 0 0 -2 0 0 -1 -2 0 0 0 -3 0 0 0 -2 0 0 -1 -2 0 0 0 -2 0 0 0 -3 0 0 0 -2 0 0 0 -3 0 0 0 -2 0 0 0 -2 0 0 0 -3 0 0 0 -2 0 0 0 -2 0 0 0 -3 0 0 0 -2 0 0 0 -2 0 0 1 -2 0 0 0 -2 0 -1 0 -2 0 0 1 -2 0 0 0 -2 0 0 1 -2 0 0 0 -2 0 0 1 -2 0 0 1 -2 0 0 0 -2 0 0 1 -2 0 0 1 -2 0 0 1 -2 0 0 1 -2 0 0 1 -2 0 0 1 -2 0 0 1 -2 0 0 1 -1 0 -1 1 -1 0 0 1 -2 0 0 1 -2 1 0 1 -1 0 0 1 -2 1 -1 1 -1 1 -1 0 0 2 -2 0 0 1 -1 0 0 2 -2 0 0 1 -1 0 0 2 -1 0 0 1 -2 0 0 2 -1 0 0 2 -1 0 0 1 -1 0 0 2 -1 0 0 2 -2 0 0 2 -1 0 0 1 0 1 -1 1 0 0 0 2 -1 0 0 2 -1 0 0 2 -1 0 0 2 -1 0 0 2 0 0 0 2 -1 0 0 2 0 0 0 2 -1 0 0 2 0 0 0 2 -1 0 0 2 0 2 -1 0 0 2 0 0 0 3 0 0 0 2 0 0 0zm-20 91l0 0 0 2 0 0 0 2 0 2 0 2 1 2 0 2 0 0 0 2 1 2 0 2 0 0 0 2 0 2 1 1 0 2 0 0 0 2 1 1 0 2 1 2 0 0 0 1 0 0 0 1 1 2 0 0 0 1 1 2 0 0 0 1 0 0 1 1 0 1 1 2 0 1 1 1 -1 0 1 1 1 1 0 1 0 0 1 0 1 2 1 2 1 1 1 1 1 1 1 1 2 1 1 1 1 1 2 0 0 0 1 1 2 0 1 0 2 0 1 1 2 -1 2 0 2 0 1 0 2 -1 1 0 2 -1 1 -1 1 -1 1 0 1 -1 1 -2 1 -1 1 -1 1 -2 1 -1 0 0 1 -2 0 -1 1 -1 0 -1 0 -1 1 -1 0 -1 0 -2 0 -1 1 -1 0 0 0 -1 0 0 0 -2 0 -1 0 -2 1 -1 0 0 0 -2 0 -1 0 -2 0 -2 0 -1 0 -2 0 -2 0 0 0 -2 0 -1 0 0 0 -2 0 -2 0 -2 0 -2 0 -2 0 0 0 -2 0 -3 0 -2 -1 -2 0 -2 0 0 0 -2 0 -2 0 -3 -1 -2 0 -2 0 0 0 -1 -1 -2 0 -2 0 -2 0 0 0 -2 -1 -2 0 0 0 -1 0 -2 -1 -2 0 -1 -1 -2 0 0 0 -1 0 0 0 -2 -1 -1 0 -2 0 0 -1 -1 0 0 0 -1 0 0 -1 -2 0 -1 -1 -1 0 -1 -1 -1 0 -1 0 -1 -1 -1 0 -1 -2 -2 -1 -1 -1 -2 0 0 -1 -1 -1 -1 -1 -1 -2 -1 -1 -1 -1 0 -2 -1 -1 0 -2 -1 -1 0 -2 0 -2 0 -1 0 -2 0 -2 0 -1 1 -2 0 -1 0 -1 1 0 0 -2 1 -1 1 -1 1 -1 1 -1 1 0 0 -2 1 0 1 -1 2 -1 2 -1 2 0 0 0 0 -1 1 0 1 0 2 -1 1 0 1 0 1 0 1 0 0 -1 2 0 1 0 1 0 2 0 1 -1 2 0 0 0 1 0 2 0 2 0 1 0 2 0 2 0 1 0 2 0 0 0 2 0 0 0 2 0 2 0 2 0 2 0 2 0 2 0 2 0 2 1 3z"/>
    <polygon class="fil3" points="6970,951 6971,951 6972,950 6972,950 6973,950 6973,950 6974,950 6974,949 6974,949 6975,949 6975,949 6976,949 6976,948 6976,948 6976,948 6977,947 6977,947 6977,947 6977,947 6977,946 6977,946 6978,945 6978,945 6978,945 6978,945 6978,944 6978,944 6978,944 6978,943 6979,942 6979,941 6979,940 6979,939 6979,938 6979,837 6979,836 6979,836 6979,836 6979,835 6979,834 6979,834 6978,834 6978,834 6978,833 6978,832 6978,832 6978,832 6978,831 6977,831 6977,830 6977,830 6976,830 6976,829 6976,829 6975,829 6975,828 6975,828 6975,828 6974,828 6973,828 6973,827 6973,827 6972,827 6971,827 6970,827 6970,827 6969,827 6969,826 6968,826 6968,826 6967,826 6965,826 6962,826 6958,826 6958,822 6958,810 6958,807 6962,807 6966,806 6969,806 6971,805 6974,805 6976,805 6978,804 6978,804 6980,804 6983,804 6985,803 6985,803 6987,803 6989,803 6989,803 6991,803 6993,802 6995,802 6997,802 6997,802 6999,801 7001,801 7002,801 7004,800 7006,800 7008,800 7009,799 7011,799 7013,799 7014,798 7016,798 7018,798 7019,797 7019,797 7021,797 7022,796 7022,796 7024,796 7028,795 7033,794 7033,799 7033,809 7033,809 7033,809 7035,808 7035,808 7037,807 7037,807 7039,806 7039,806 7041,805 7041,805 7043,804 7045,803 7045,803 7047,802 7047,802 7048,801 7048,801 7050,801 7050,801 7052,800 7052,800 7053,799 7054,799 7055,799 7055,799 7057,798 7057,798 7059,797 7059,797 7060,797 7060,797 7062,797 7062,797 7064,796 7064,796 7065,796 7065,796 7067,795 7067,795 7069,795 7069,795 7070,795 7070,795 7072,795 7072,795 7074,795 7074,794 7075,794 7075,794 7077,794 7077,794 7079,794 7079,794 7080,794 7081,794 7083,794 7083,794 7086,794 7086,794 7089,795 7089,795 7092,795 7092,795 7094,795 7095,796 7097,796 7097,796 7099,797 7100,797 7102,798 7102,798 7104,798 7104,799 7107,799 7107,800 7109,801 7109,801 7111,802 7111,802 7113,803 7113,803 7115,805 7115,805 7117,806 7117,806 7119,808 7119,808 7120,810 7121,810 7122,812 7122,812 7124,814 7124,814 7125,816 7125,816 7126,818 7126,818 7127,820 7127,820 7128,822 7128,822 7129,825 7129,825 7130,827 7130,827 7131,829 7131,830 7131,832 7131,832 7132,835 7132,835 7132,837 7132,837 7132,840 7132,840 7133,843 7133,843 7133,846 7133,846 7133,930 7133,930 7133,932 7133,934 7133,935 7133,937 7133,939 7133,939 7133,940 7133,941 7134,942 7134,942 7134,944 7134,944 7134,945 7134,945 7135,946 7135,947 7135,947 7135,948 7136,948 7136,948 7136,949 7137,949 7137,949 7137,949 7138,950 7138,950 7139,950 7140,950 7140,950 7140,951 7141,951 7142,951 7143,951 7144,951 7145,952 7149,952 7153,952 7153,956 7153,968 7153,972 7149,972 7061,972 7057,972 7057,968 7057,956 7057,952 7061,952 7065,952 7066,951 7067,951 7068,951 7068,951 7069,951 7069,951 7070,951 7071,950 7071,950 7072,950 7072,950 7073,950 7074,949 7074,949 7075,949 7075,949 7075,948 7076,948 7076,948 7076,948 7076,948 7076,948 7076,947 7077,947 7077,947 7077,946 7077,946 7078,945 7078,945 7078,944 7078,943 7078,942 7078,942 7079,941 7079,940 7079,939 7079,938 7079,938 7079,849 7079,849 7079,847 7079,846 7079,844 7078,843 7078,841 7078,840 7078,839 7078,838 7077,837 7077,836 7077,836 7077,835 7077,835 7076,835 7076,834 7076,834 7076,833 7075,833 7075,832 7075,832 7074,832 7074,831 7073,831 7073,831 7072,830 7071,830 7071,830 7070,829 7069,829 7068,829 7067,829 7066,829 7064,829 7063,829 7062,829 7061,829 7060,829 7059,829 7058,829 7057,829 7056,829 7055,829 7055,829 7054,829 7053,830 7053,830 7052,830 7052,830 7051,830 7050,830 7049,831 7048,831 7048,831 7047,832 7046,832 7045,832 7044,833 7044,833 7043,833 7043,833 7042,834 7041,834 7041,834 7040,835 7040,835 7039,835 7038,836 7037,837 7036,838 7035,838 7034,839 7033,840 7033,936 7033,936 7033,937 7033,938 7033,940 7033,941 7033,941 7033,942 7033,942 7033,943 7034,943 7034,944 7034,945 7034,946 7034,946 7035,947 7035,947 7035,947 7035,947 7036,948 7036,948 7036,948 7036,949 7037,949 7037,949 7037,949 7038,950 7038,950 7039,950 7039,950 7039,950 7040,951 7041,951 7042,951 7042,951 7043,951 7044,951 7045,951 7045,951 7046,952 7049,952 7053,952 7053,956 7053,968 7053,972 7049,972 6962,972 6958,972 6958,968 6958,956 6958,952 6962,952 6965,951 6967,951 6968,951 6969,951 6969,951 6970,951 "/>
    <polygon class="fil3" points="6426,930 6426,930 6426,932 6426,934 6426,936 6426,937 6426,939 6426,939 6426,940 6426,942 6427,943 6427,944 6427,945 6427,946 6428,947 6428,947 6428,948 6428,948 6428,948 6429,948 6429,949 6429,949 6430,949 6430,950 6430,950 6431,950 6432,950 6433,951 6433,951 6434,951 6434,951 6435,951 6436,951 6437,952 6438,952 6442,952 6446,952 6446,956 6446,968 6446,972 6442,972 6353,972 6348,972 6348,968 6348,956 6348,952 6352,952 6356,952 6357,951 6358,951 6359,951 6360,951 6361,951 6362,950 6362,950 6363,950 6363,950 6364,950 6364,950 6364,950 6365,950 6365,949 6366,949 6366,949 6366,949 6366,949 6367,948 6367,948 6367,948 6368,947 6368,947 6368,947 6368,946 6368,946 6368,946 6369,945 6368,945 6369,945 6369,944 6369,944 6369,943 6369,942 6369,941 6369,940 6369,939 6369,938 6369,838 6369,837 6369,836 6369,836 6369,835 6369,835 6369,834 6369,833 6369,833 6368,832 6368,832 6368,832 6368,831 6367,831 6367,830 6367,830 6367,830 6366,829 6366,829 6365,829 6365,829 6365,829 6365,828 6365,828 6364,828 6364,828 6363,828 6362,827 6362,827 6362,827 6361,827 6361,827 6360,827 6359,827 6358,827 6358,827 6357,827 6356,827 6353,826 6348,826 6348,823 6348,810 6348,807 6352,806 6356,806 6358,806 6358,806 6360,805 6362,805 6364,805 6364,805 6366,804 6366,804 6368,804 6370,804 6370,804 6372,804 6374,803 6376,803 6378,803 6380,802 6382,802 6384,802 6386,801 6388,801 6390,801 6392,800 6392,800 6394,800 6396,800 6396,800 6398,799 6398,799 6400,799 6400,799 6402,799 6402,799 6404,798 6406,798 6406,798 6408,797 6410,797 6412,797 6414,796 6414,796 6416,796 6421,795 6426,794 6426,798 6426,930 "/>
    <path class="fil3" d="M6397 723c16,0 29,13 29,28 0,16 -13,29 -29,29 -16,0 -29,-13 -29,-29 0,-15 13,-28 29,-28z"/>
    <path class="fil3" d="M7346 679c12,0 23,4 31,12l0 0c8,8 13,18 13,30 0,12 -5,22 -13,30l0 0c-8,8 -19,12 -31,12 -12,0 -23,-4 -31,-12l0 0c-8,-8 -13,-18 -13,-30 0,-12 5,-22 13,-30l0 0c8,-8 19,-12 31,-12zm27 16l0 0c-7,-7 -16,-11 -27,-11 -11,0 -20,4 -27,11l0 0c-7,6 -11,16 -11,26 0,10 4,19 11,26l0 0c7,7 16,11 27,11 11,0 20,-4 27,-11l0 0c7,-7 11,-16 11,-26 0,-10 -4,-20 -11,-26l0 0z"/>
    <path class="fil3" d="M7328 744l0 -46 21 0c4,0 7,0 9,1 3,1 4,2 6,5 1,2 2,4 2,6 0,4 -1,7 -4,9 -2,2 -5,3 -10,4 2,1 3,2 4,2 2,2 4,4 5,6l9 13 -8 0 -7 -10c-1,-2 -3,-4 -4,-6 -1,-1 -2,-2 -3,-3 -1,-1 -2,-1 -3,-1 -1,0 -2,0 -4,0l-7 0 0 20 -6 0zm6 -26l0 0 13 0c3,0 6,0 7,-1 2,0 3,-1 4,-2 1,-2 1,-3 1,-5 0,-2 -1,-3 -2,-5 -2,-1 -4,-2 -8,-2l-15 0 0 15z"/>
    <path class="fil0" d="M7389 881c3,0 6,2 6,5 0,3 -3,5 -6,5 -3,0 -6,-2 -6,-5 0,-3 3,-5 6,-5zm-1 2l0 0c-2,0 -3,1 -3,2 0,1 1,2 3,2 1,0 3,-1 3,-2 0,-1 -2,-2 -3,-2z"/>
    <path class="fil3" d="M7389 881c3,0 6,2 6,5 0,2 -3,5 -6,5 -3,0 -6,-3 -6,-5 0,-3 3,-5 6,-5zm-1 2l0 0c-2,0 -3,1 -3,2 0,1 1,2 3,2 1,0 3,-1 3,-2 0,-1 -2,-2 -3,-2z"/>
    <path class="fil0" d="M7417 895c0,2 0,3 0,3 2,1 3,1 4,2 0,0 0,0 0,0 2,2 5,5 7,7 1,2 2,4 3,6 -10,-2 -20,-4 -30,-5 0,0 0,0 -1,0 0,0 -1,0 -1,-1 -1,0 -1,0 -1,0 1,0 1,0 2,-1 6,-4 11,-7 17,-11z"/>
    <path class="fil3" d="M7417 895c0,2 0,3 0,3 2,1 3,1 4,2 0,0 0,0 0,0 2,2 5,5 7,7 1,2 2,4 3,6 -10,-2 -20,-4 -30,-5 0,0 0,0 -1,0 0,0 -1,-1 -2,-1 0,0 0,0 0,0 1,0 1,0 2,-1 6,-4 11,-7 17,-11z"/>
    <path class="fil0" d="M7310 875c-8,3 -9,4 -9,4 -1,-1 -4,-2 -7,-5 -3,-2 -2,-12 -2,-22 0,-1 0,-2 0,-4l0 0c0,-6 1,-12 3,-20 1,-7 3,-15 3,-25 1,-10 -2,-20 -6,-29 -6,-9 -14,-18 -23,-24 -7,-5 -19,-16 -31,-26 -11,-11 -21,-21 -26,-28 -10,-12 -19,-40 -20,-40l-2 -7 -8 3c0,0 -13,6 -17,19 -3,7 -3,15 -1,23 1,7 4,14 8,21 -6,-2 -11,-5 -15,-6 -18,-8 -38,-3 -38,-3l-8 2 3 7c0,0 2,4 10,12 2,3 10,8 18,13 -3,0 -6,-1 -10,-1 -16,-3 -30,-12 -42,-21 6,17 10,34 41,50 -5,-1 -13,-1 -13,-1l-6 -1 -1 0 0 0 0 0c-1,-1 -2,-2 -3,-3 -3,-2 -6,-5 -9,-7 -2,-1 -3,-3 -5,-4 -2,-1 -3,-2 -6,-4l0 0c-3,-2 -9,-8 -13,-12 -2,-1 -3,-2 -3,-3 -2,-1 -4,-3 -6,-5 -3,-2 -6,-5 -9,-8 -2,-2 -9,-11 -13,-19 -3,-4 -6,-8 -7,-10l0 0c-2,-2 -5,-4 -8,-6 -6,-1 -12,1 -15,12 -2,6 0,13 2,19 -7,1 -10,6 -10,6l-1 5c0,0 2,12 7,21l0 0c1,2 3,4 5,6 -6,2 -10,7 -4,21l2 -1 1 0 5 -1 1 -1 0 -1c-10,-20 13,-13 13,-13l8 2c0,0 -19,-11 -24,-19 -5,-8 -6,-19 -6,-19 0,0 1,-2 5,-2 3,0 9,4 12,6 2,1 -12,-19 -8,-30 3,-11 7,-6 10,-3 3,3 16,25 21,29 5,4 10,9 14,13 4,4 14,13 18,16 4,2 6,4 11,7 4,4 10,10 13,12l7 6c0,0 32,24 80,67 12,13 25,24 36,33 16,11 40,26 59,16 -14,5 -31,-1 -49,-13 -15,-10 -30,-24 -42,-37 -8,-7 -68,-60 -79,-69l-1 -2c4,0 16,1 19,1 5,0 31,-2 31,-2 0,0 -29,-7 -40,-12 -11,-6 -20,-15 -23,-18 -3,-3 -6,-9 -6,-9 0,0 17,9 30,11 13,2 18,3 25,4 6,1 21,3 21,3 0,0 -41,-22 -47,-30 -7,-7 -8,-10 -8,-10 0,0 17,-4 33,3 17,6 54,30 54,30 0,0 -19,-14 -29,-30 -9,-16 -12,-31 -8,-42 4,-10 14,-15 14,-15 0,0 11,29 21,42 10,14 44,45 59,55 14,11 27,28 26,47 -2,19 -6,33 -7,46 0,12 -1,26 5,31 5,5 9,6 9,6 0,0 3,1 15,-4 12,-4 30,-10 42,-12 13,-2 30,-5 37,0 8,5 12,13 12,20 1,6 2,11 2,11l4 2 2 3 1 0c2,0 4,-1 5,-1 -1,-2 -2,-5 -6,-7 0,-2 -1,-4 -1,-6 0,-4 -2,-9 -4,-13 -3,-4 -6,-8 -11,-11 -10,-7 -29,-4 -43,-2l0 0c-6,1 -13,3 -20,5 -8,2 -17,6 -24,8zm109 36l0 0 2 4c0,0 -6,-2 -11,-3 -2,1 -5,2 -10,4 9,0 18,0 29,4 -1,-3 -3,-7 -4,-10l-3 0c-1,0 -2,1 -3,1zm-24 -3l0 0c-1,-4 -16,2 -18,2 -5,3 -9,6 -13,10 -3,4 -5,9 -8,13 -2,4 -5,9 -7,14 -2,6 -2,12 -3,18 -1,5 -2,10 -3,14 -3,10 -6,21 -11,30 -2,4 -4,8 -8,11 -13,9 -36,22 -40,21 -4,-2 -2,1 -1,3l1 0 1 0 6 -3 1 0 0 2c0,0 2,9 6,10 0,-1 -1,-3 -2,-4 0,0 0,-1 0,-1 2,-2 5,-3 8,-4 8,-5 18,-10 24,-16 7,-5 12,-14 16,-25 3,-8 5,-17 7,-26 1,-7 2,-16 5,-23 2,-5 4,-10 6,-15 4,-7 7,-14 14,-19 4,-2 8,-4 12,-6 2,-1 7,-3 7,-5 0,0 0,0 0,-1zm-101 155l0 0c-1,0 -1,-2 0,-6 1,1 3,2 4,4 1,0 2,1 1,2 6,6 14,16 16,19 2,2 6,9 8,16 2,5 4,10 3,13 0,4 -2,7 -4,10 -3,3 -7,5 -10,6 -3,0 -6,0 -9,-1 -1,-1 -1,-1 -2,-1 0,1 0,3 0,4 -1,5 -2,8 -3,10 -2,3 -4,5 -6,6 -1,1 -2,2 -2,2l-3 1c0,0 -7,2 -14,-1 0,0 0,1 0,2 -1,3 -3,6 -5,8l0 0c-4,3 -6,4 -10,4 -2,0 -5,-1 -9,-3 -1,-1 -3,-3 -4,-4 0,0 -1,1 -1,2 -3,3 -5,5 -7,6 -2,2 -4,2 -6,3 -3,1 -9,1 -14,-1 -4,-1 -8,-4 -11,-8 -1,-2 -1,-4 -2,-6 -2,2 -3,3 -5,4l0 0c-4,3 -7,4 -10,5l0 0c0,0 -10,2 -16,-3 -3,-3 -6,-8 -7,-15 0,-3 0,-7 0,-11l0 0 0 0 -1 1 0 0c-3,1 -5,2 -9,3 -3,1 -6,2 -10,2 -3,0 -6,0 -9,-1 -3,-1 -7,-5 -9,-10 -1,-4 -2,-8 0,-13l0 0c0,0 0,0 -1,0 -2,0 -3,0 -4,0 -5,0 -7,0 -10,-3 -2,-1 -3,-2 -4,-4 -1,-2 -2,-4 -3,-7 0,-1 0,-4 0,-6 1,-3 2,-7 4,-9 3,-2 4,-3 8,-4l2 -1c2,-1 8,-4 12,-6 3,-1 5,-2 6,-3 2,-1 7,-4 12,-8 5,-4 10,-8 12,-10 4,-4 12,-12 19,-18 5,-5 9,-10 10,-11l0 0c1,-1 4,-4 6,-6 -2,-2 -4,-5 -4,-8 0,-1 0,-3 0,-4l-1 0c-4,0 -8,-2 -10,-5 -2,-2 -3,-5 -3,-9 0,0 -1,0 -2,0 -1,1 -1,1 -2,1l0 -11 1 0c4,-1 7,-3 11,-4 3,-2 14,-7 14,-7 0,0 -2,2 -8,7 -6,4 -7,13 -5,16 2,3 11,3 14,2 3,-1 6,-3 6,-3 0,0 -4,4 -6,6 -1,2 -2,3 -1,7 0,4 6,8 6,8 0,0 -7,9 -10,12 -2,2 -24,24 -29,29 -5,4 -22,17 -26,19 -3,2 -14,7 -19,9 -4,2 -6,2 -7,4 -2,2 -2,7 -2,9 0,3 2,5 4,7 2,1 4,1 10,1 6,0 8,-2 11,-4 3,-1 10,-6 10,-6 0,0 -2,4 -6,7 -3,3 -5,6 -7,13 -3,7 2,12 5,13 2,1 10,1 14,-1 3,-1 5,-2 8,-3 3,-2 20,-16 20,-16 0,0 -6,10 -8,19 -3,9 0,20 3,23 4,3 10,1 10,1 0,0 1,2 8,-3 6,-4 18,-22 18,-22 0,0 -6,19 -1,26 5,7 13,7 16,6 3,-1 5,-2 10,-7 4,-5 5,-16 5,-16 0,0 3,6 6,12 3,5 7,7 9,7 1,0 2,-1 5,-3 2,-2 3,-8 4,-12 0,-4 -3,-15 -4,-22 -1,-6 -2,-12 -2,-12 0,0 2,6 3,11 2,5 5,17 10,22 4,5 11,3 11,3 0,0 1,-1 3,-3 2,-1 4,-2 5,-11 2,-8 -6,-20 -6,-20 0,0 6,6 11,9 4,2 9,4 12,3 4,0 8,-4 9,-9 0,-5 -8,-21 -10,-24 -2,-3 -11,-14 -16,-20z"/>
    <path class="fil3" d="M7310 875c-8,3 -9,4 -9,4 -1,-1 -4,-2 -7,-5 -3,-2 -2,-12 -2,-22 0,-1 0,-3 0,-4l0 0c0,-6 2,-12 3,-20 1,-7 3,-15 3,-25 1,-10 -1,-20 -6,-29 -6,-9 -14,-18 -23,-24 -7,-5 -19,-16 -30,-27 -12,-10 -22,-20 -27,-27 -10,-12 -19,-40 -19,-40l-3 -7 -8 3c0,0 -13,6 -17,19 -3,7 -3,14 -1,23 1,7 4,14 8,21 -6,-2 -11,-5 -15,-6 -18,-8 -38,-3 -38,-3l-8 2 3 7c0,0 2,4 10,12 2,3 10,8 18,13 -3,0 -6,-1 -10,-1 -16,-3 -30,-12 -42,-21 6,17 10,34 41,50 -5,-1 -13,-1 -13,-1l-6 -1 -1 0 0 0 0 0c-1,-1 -2,-2 -3,-3 -3,-2 -6,-5 -9,-7 -2,-1 -3,-3 -5,-4 -2,-1 -3,-2 -6,-4l0 0c-3,-2 -9,-8 -13,-12 -2,-1 -3,-2 -3,-3 -2,-1 -4,-3 -6,-5 -3,-2 -6,-5 -9,-8 -2,-2 -8,-12 -13,-19 -3,-4 -6,-8 -7,-10l0 0c-2,-2 -5,-5 -8,-6 -6,-1 -12,1 -15,12 -2,6 0,13 2,19 -7,1 -10,6 -10,6l-1 4c0,1 2,13 7,22l0 0c1,2 3,4 5,6 -6,2 -10,7 -4,20l2 0 1 0 5 -1 1 -1 0 -1c-10,-20 13,-13 13,-13l8 2c0,0 -19,-11 -24,-19 -5,-8 -6,-19 -6,-19 0,0 1,-2 5,-2 3,0 9,4 12,6 2,1 -12,-19 -8,-30 3,-12 7,-6 10,-3 3,3 16,24 21,29 5,4 10,9 14,13 4,4 14,13 18,15 4,3 6,5 11,8 4,4 10,10 13,12l7 6c0,0 32,24 80,67 12,13 25,24 36,33 16,11 40,26 59,15 -14,6 -31,0 -49,-12 -15,-10 -30,-24 -42,-38 -8,-6 -68,-59 -79,-68l-1 -2c4,0 16,1 19,1 5,0 31,-2 31,-2 0,0 -29,-7 -40,-12 -11,-6 -20,-15 -23,-18 -3,-3 -6,-9 -6,-9 0,0 17,9 30,11 13,2 18,3 25,4 6,1 21,3 21,3 0,0 -41,-23 -47,-30 -7,-7 -8,-10 -8,-10 0,0 17,-4 33,3 17,6 54,30 54,30 0,0 -19,-14 -29,-30 -9,-16 -12,-31 -8,-42 4,-10 14,-15 14,-15 0,0 11,29 21,42 10,13 44,45 59,55 14,11 27,28 26,47 -2,19 -6,33 -7,45 0,13 -1,27 5,32 5,5 9,6 9,6 0,0 3,1 15,-4 12,-4 30,-10 42,-12 13,-2 30,-5 37,0 8,5 12,13 12,19 1,7 2,12 2,12l4 2 2 3 1 0c2,0 4,-1 5,-2 -1,-1 -2,-4 -6,-6 0,-2 -1,-4 -1,-6 0,-4 -2,-9 -4,-13 -3,-5 -6,-8 -11,-11 -10,-7 -29,-4 -43,-2l0 0c-6,1 -13,3 -20,5 -8,2 -17,5 -24,8zm109 36l0 0 2 3c0,0 -6,-1 -11,-2 -2,1 -5,2 -10,4 9,0 18,0 29,4 -1,-3 -3,-7 -4,-10l-3 0c-1,0 -2,1 -3,1zm-24 -3l0 0c0,-4 -16,2 -18,2 -5,3 -9,6 -13,10 -3,4 -5,9 -8,13 -2,4 -5,9 -7,14 -2,5 -2,12 -3,18 -1,5 -2,9 -3,14 -3,10 -6,20 -11,30 -2,4 -4,8 -8,10 -12,10 -36,23 -40,22 -4,-2 -2,1 -1,3l1 0 1 -1 6 -2 1 0 0 2c0,0 2,8 6,10 0,-1 -1,-3 -1,-4 -1,-1 -1,-1 -1,-2 2,-1 5,-2 8,-3 8,-5 18,-11 24,-16 7,-5 12,-14 16,-25 3,-8 5,-17 7,-26 1,-8 2,-16 5,-23 2,-5 4,-10 6,-15 4,-7 7,-15 14,-19 4,-2 8,-4 12,-6 2,-1 7,-3 7,-5 0,0 0,0 0,-1zm-101 155l0 0c-1,0 0,-2 0,-6 1,1 3,2 4,4 1,0 2,1 2,2 5,6 13,16 15,19 2,2 6,9 8,16 2,5 4,10 3,13 0,4 -2,7 -4,10 -3,3 -7,5 -10,5 -3,1 -6,0 -9,0 -1,-1 -1,-1 -2,-1 0,1 0,3 0,4 -1,5 -2,8 -3,10 -2,3 -4,5 -6,6 -1,1 -2,1 -2,1l-3 2c0,0 -7,2 -14,-2 0,1 0,2 0,3 -1,3 -3,6 -5,8l0 0c-4,2 -6,4 -10,4 -2,0 -5,-1 -9,-4 -1,0 -3,-2 -4,-3 0,0 -1,1 -1,2 -3,3 -5,4 -7,6 -2,1 -4,2 -6,3 -3,1 -9,1 -14,-1 -4,-1 -8,-4 -11,-8 -1,-2 -1,-4 -2,-6 -2,2 -3,3 -5,4l0 0c-4,3 -7,4 -10,4l0 0c0,0 -10,2 -16,-2 -3,-3 -6,-8 -7,-15 0,-3 0,-7 0,-11l0 0 0 0 -1 1 0 0c-3,1 -5,2 -9,3 -3,1 -6,2 -10,2 -3,0 -6,0 -9,-1 -3,-1 -7,-5 -9,-10 -1,-4 -2,-8 0,-13l0 0c0,0 0,0 -1,0 -2,0 -3,0 -4,0 -5,0 -7,0 -10,-3 -2,-1 -3,-2 -4,-4 -1,-2 -2,-4 -3,-7 0,-1 0,-4 0,-6 1,-3 2,-7 4,-9 3,-2 4,-3 8,-4l2 -1c2,-1 8,-4 12,-6 3,-1 5,-3 6,-3 2,-1 7,-4 12,-8 5,-4 10,-8 12,-10 4,-4 12,-12 19,-18 5,-5 9,-10 10,-11l0 0c1,-1 4,-4 6,-6 -2,-2 -4,-5 -4,-8 0,-1 0,-3 0,-4l-1 0c-4,0 -8,-2 -10,-5 -2,-2 -3,-5 -3,-9 0,0 -1,0 -2,0 -1,0 -1,1 -2,1l0 -11 1 0c4,-1 7,-3 11,-4 3,-2 14,-7 14,-7 0,0 -2,2 -8,7 -6,4 -7,13 -5,16 3,3 11,3 14,2 3,-2 6,-3 6,-3 0,0 -4,4 -6,6 -1,2 -2,3 -1,7 0,4 6,8 6,8 0,0 -7,9 -10,12 -2,2 -24,24 -29,29 -5,4 -22,17 -26,19 -3,1 -14,7 -19,9 -4,2 -6,2 -7,4 -2,1 -2,7 -2,9 1,3 2,5 4,7 2,1 4,0 10,0 6,0 8,-2 11,-3 3,-1 10,-6 10,-6 0,0 -2,4 -6,7 -3,2 -5,6 -7,13 -3,7 2,12 5,13 2,1 10,0 14,-1 3,-1 5,-2 8,-3 3,-2 20,-16 20,-16 0,0 -6,10 -8,19 -3,9 0,20 3,23 4,3 10,1 10,1 0,0 1,2 8,-3 6,-4 18,-22 18,-22 0,0 -6,19 -1,26 5,7 13,7 16,6 3,-1 5,-2 10,-7 4,-5 5,-16 5,-16 0,0 3,6 6,12 3,5 7,7 9,7 1,0 3,-1 5,-3 2,-2 3,-8 4,-12 0,-4 -3,-15 -4,-22 -1,-6 -2,-12 -2,-12 0,0 2,6 3,11 2,5 5,17 10,22 4,5 11,3 11,3 0,0 1,-2 3,-3 2,-1 4,-2 5,-11 2,-8 -6,-20 -6,-20 0,0 6,6 11,8 4,3 9,5 12,4 4,0 8,-4 9,-9 0,-5 -8,-21 -10,-25 -2,-2 -11,-13 -16,-19z"/>
    <path class="fil0" d="M7414 899c5,-2 12,-4 18,-5 1,-2 2,-5 4,-7 4,-5 9,-8 14,-11 7,-4 14,-7 22,-10l8 -4 -4 8c-5,9 -10,16 -17,23 -1,1 -2,2 -3,3 4,0 7,-1 10,-1 0,-1 1,-3 2,-4 4,-9 15,-12 24,-15 15,-4 29,-11 44,-14l7 -1 -4 6c-5,10 -23,18 -34,22 -6,3 -11,5 -16,8 3,1 6,1 9,2 6,-12 37,-16 48,-18l7 0 -4 5c-2,3 -5,6 -7,8 5,-1 12,-1 17,-1l5 1 -3 4c-2,4 -6,8 -11,10 9,2 12,4 20,7l-15 0c-7,0 -14,-1 -21,-1 5,4 13,14 14,17 0,2 0,2 -1,3 -2,4 -9,0 -12,-2 -3,-1 -5,-2 -7,-3 -1,-1 -2,-2 -3,-2 3,3 5,7 5,9 0,0 0,1 0,2 -2,3 -6,1 -8,0 -3,-1 -6,-2 -8,-3 -3,-2 -9,-4 -11,-7 -4,-4 -12,-8 -11,-14 0,-2 1,-3 1,-4 -5,0 -10,0 -14,0 4,2 9,5 12,8 3,2 5,6 7,9 2,3 5,7 7,10l5 9 -9 -4c-5,-3 -11,-6 -15,-8 -6,-4 -17,-9 -20,-15 -2,-3 -3,-7 -1,-10 -5,1 -10,1 -15,1 5,4 13,9 16,13 4,3 8,8 11,12l6 6 -9 -1c-9,-2 -22,-6 -29,-10 -5,-3 -18,-11 -15,-18l-3 1c-11,3 -20,2 -27,6 0,0 0,0 0,0 -6,3 -11,8 -15,14 -5,7 -9,14 -12,23 -2,1 -5,5 -7,-1 0,-3 1,-6 1,-9 4,-21 25,-43 47,-47zm-44 56l0 0c3,-10 7,-16 12,-24 5,-7 11,-12 18,-15 10,-5 12,-3 22,-6 18,-2 36,-3 54,-4 26,2 53,4 79,6 -4,-1 -9,-2 -13,-3 7,-3 13,-7 17,-13 -19,-1 -27,3 -27,11 -8,-1 -17,-1 -24,-4 13,-2 30,-7 39,-19 -23,4 -44,9 -47,18 0,0 -1,0 -2,0 -5,-1 -13,-2 -18,-2 9,-7 15,-10 24,-13 11,-6 28,-13 33,-22 -16,3 -28,11 -44,14 -19,6 -22,11 -25,19 -8,1 -14,1 -19,1 9,-9 15,-13 24,-30 -23,11 -35,14 -39,28 -4,0 -12,2 -20,5 -20,3 -45,27 -44,53zm175 -23l0 0c-1,-2 -12,-16 -16,-18 -4,-2 -6,-2 -8,1 -1,4 5,8 9,11 4,3 16,9 15,6zm-70 5l0 0c0,0 -7,-8 -11,-12 -4,-4 -14,-11 -19,-13 -5,-3 -10,-2 -12,1 -2,3 4,9 13,14 9,5 29,10 29,10zm27 2l0 0c0,0 -9,-15 -13,-19 -4,-3 -11,-8 -17,-10 -5,-2 -6,3 -4,8 3,4 15,10 19,13 5,3 15,8 15,8zm25 -3l0 0c0,-1 -6,-11 -10,-15 -4,-4 -10,-7 -15,-9 -5,-3 -6,-2 -7,2 0,4 7,9 10,12 4,3 22,12 22,10zm-8 -24l0 0c-3,0 -7,0 -10,-1 3,2 7,5 9,7 0,-1 0,-2 0,-4 1,0 1,-1 1,-2z"/>
    <path class="fil3" d="M7414 899c5,-2 12,-4 18,-5 1,-2 2,-5 4,-7 4,-5 9,-8 14,-11 7,-4 14,-7 22,-10l8 -4 -4 8c-5,9 -10,16 -17,23 -1,1 -2,2 -3,3 4,-1 7,-1 10,-1 0,-1 1,-3 2,-4 5,-9 15,-12 25,-15 14,-4 28,-11 43,-14l7 -1 -4 6c-5,10 -23,18 -34,22 -6,3 -11,5 -16,8 3,1 6,1 9,2 6,-12 37,-16 48,-18l7 -1 -4 6c-2,3 -4,6 -7,8 5,-1 12,-1 17,-1l5 1 -3 4c-2,4 -6,7 -10,10 8,2 11,4 19,7l-15 0c-7,0 -14,-1 -21,-2 5,5 13,15 14,18 0,1 0,2 -1,3 -2,4 -9,0 -12,-2 -3,-1 -5,-2 -7,-4 -1,0 -2,-1 -3,-1 3,3 5,7 5,9 0,0 0,1 0,2 -2,3 -6,1 -8,0 -3,-1 -5,-2 -8,-3 -3,-2 -9,-5 -11,-7 -4,-4 -12,-9 -11,-14 0,-2 1,-3 1,-4 -5,0 -9,0 -14,-1 4,3 9,6 12,9 3,2 5,6 7,9 3,3 5,7 7,10l5 9 -9 -5c-5,-2 -11,-5 -15,-8 -6,-3 -17,-8 -20,-14 -2,-3 -3,-7 -1,-10 -5,1 -10,1 -15,1 5,3 13,9 16,13 4,3 8,8 11,12l6 6 -9 -2c-9,-1 -22,-5 -29,-9 -5,-3 -18,-11 -15,-18l-3 1c-11,3 -20,2 -27,6 0,0 0,0 0,0 -6,3 -11,8 -15,14 -5,7 -9,14 -12,22 -2,2 -5,6 -7,0 0,-3 1,-6 1,-9 4,-21 25,-43 47,-47zm-44 55l0 0c3,-9 7,-15 12,-23 5,-7 11,-12 18,-15 10,-5 12,-3 22,-6 18,-2 36,-3 54,-4 26,2 53,4 79,6 -4,-1 -9,-2 -13,-3 7,-3 13,-7 17,-13 -19,-1 -27,3 -27,11 -8,-1 -17,-2 -24,-4 13,-2 30,-7 39,-19 -22,3 -44,9 -47,17 0,1 -1,1 -2,1 -5,-1 -13,-2 -18,-2 9,-7 15,-10 24,-13 11,-6 28,-13 33,-22 -16,3 -28,11 -44,14 -19,6 -22,11 -25,19 -8,0 -14,1 -19,1 9,-9 15,-13 24,-30 -23,10 -35,14 -38,28 -5,0 -13,2 -21,5 -20,3 -45,27 -44,52zm175 -22l0 0c-1,-2 -12,-16 -16,-18 -4,-2 -6,-2 -8,1 -1,4 5,8 9,11 4,3 16,9 15,6zm-70 4l0 0c0,0 -6,-7 -11,-11 -4,-4 -14,-11 -19,-14 -5,-2 -10,-1 -12,2 -2,3 4,9 13,14 9,5 29,9 29,9zm27 3l0 0c0,0 -9,-15 -13,-19 -4,-3 -11,-8 -17,-10 -5,-2 -6,3 -3,7 2,5 14,11 18,14 5,3 15,8 15,8zm25 -3l0 0c0,-1 -6,-11 -10,-15 -4,-4 -10,-7 -15,-10 -5,-2 -6,-1 -7,3 0,4 7,9 10,12 4,3 22,12 22,10zm-8 -24l0 0c-3,0 -7,0 -10,-1 3,2 7,4 9,7 0,-1 0,-2 0,-4 1,0 1,-1 1,-2z"/>
    <path class="fil0" d="M7293 1042c0,0 2,8 7,14 3,3 4,5 5,6l0 0c0,1 0,2 0,2 0,1 -1,1 -3,1 0,0 -2,-2 -4,-4 -2,-1 -3,-2 -3,-3l0 0 0 0c-1,5 -3,12 -6,15l0 0c0,1 -1,2 -2,2 -1,2 -3,1 -3,-1 0,-1 0,-3 1,-6 0,-4 1,-6 0,-8l0 0c0,-1 0,-2 -1,-3 -1,0 -1,0 -2,0 -1,0 -3,0 -4,1l0 0c-2,1 -5,0 -7,-1 -1,-1 -2,-2 -2,-2 -1,-2 -1,-3 0,-4l0 0c1,-1 2,-1 5,-1 9,-1 9,-6 9,-6l0 -1 1 0 7 -2 1 -1 1 2zm6 15l0 0c-5,-5 -8,-12 -8,-14l-6 2c0,1 -1,6 -10,7 -3,0 -4,0 -4,1 -1,0 -1,0 0,1 0,0 0,0 1,1 1,1 4,2 6,1 1,-1 2,-1 4,-1 1,0 2,0 3,1 1,0 2,2 2,4 1,2 0,4 0,8 -1,3 -1,5 -1,6 0,0 0,0 0,0 0,-1 1,-1 1,-2 3,-3 5,-10 5,-14l0 -2c1,-3 1,-4 2,-3l0 0c0,0 0,0 1,1 0,1 2,4 4,6 2,2 3,3 4,3 -1,-1 -2,-3 -4,-6z"/>
    <path class="fil3" d="M7293 1042c0,0 2,8 7,14 3,3 4,5 5,6l0 0c0,1 0,2 0,2 0,1 -1,1 -3,1 0,-1 -2,-2 -4,-4 -1,-1 -3,-2 -3,-3l0 0 0 0c-1,5 -3,12 -6,15l0 0c0,1 -1,2 -2,2 -1,1 -3,1 -3,-1 0,-1 0,-3 1,-6 0,-4 1,-6 0,-8l0 0c0,-1 0,-2 -1,-3 -1,0 -1,0 -2,0 -1,0 -2,0 -3,1l0 0c-3,1 -6,0 -8,-2 -1,0 -2,-1 -2,-2 -1,-1 -1,-2 0,-3l0 0c1,-1 2,-1 5,-2 9,0 9,-5 9,-5l0 -1 1 0 7 -2 1 -1 1 2zm6 15l0 0c-5,-5 -8,-12 -8,-14l-5 2c-1,1 -2,6 -11,6 -3,1 -4,1 -4,2 -1,0 -1,0 0,1 0,0 0,0 1,1 1,1 4,2 6,1 1,-1 2,-1 4,-1 1,0 2,0 3,1 1,0 2,2 2,4 1,2 1,4 0,8 -1,3 -1,5 -1,6 0,0 0,0 0,0 0,-1 1,-1 2,-2 2,-3 4,-10 4,-14l1 -2c0,-3 0,-4 1,-4l0 0c0,1 0,1 1,2 0,1 2,3 4,6 2,2 3,2 4,3 0,-1 -2,-3 -4,-6z"/>
    <path class="fil0" d="M7261 1051c0,0 2,9 7,14 2,3 4,5 4,7 1,0 1,1 0,2 0,1 -1,1 -2,0 -1,0 -3,-1 -5,-3 -1,-1 -2,-3 -3,-4l0 0c0,5 -3,12 -5,16 0,1 -1,2 -2,2 -1,1 -3,1 -3,-1 0,-1 0,-3 1,-6 0,-4 1,-7 0,-9 0,-1 0,-2 -1,-2l0 0c-1,-1 -1,-1 -2,-1 -1,0 -2,1 -3,1 -2,1 -6,0 -8,-1 0,-1 -1,-1 -2,-2 0,-1 0,-2 1,-3l0 0c0,-1 2,-2 5,-2 8,-1 8,-6 8,-6l0 -1 2 0 5 -2 2 -1 1 2zm5 16l0 0c-5,-6 -7,-13 -7,-15l-5 2c-1,1 -2,6 -11,7 -2,0 -3,0 -4,1 0,0 0,1 0,1 1,0 1,1 2,1 1,1 4,2 5,1 1,0 3,-1 4,-1 1,0 2,0 3,1 1,1 2,2 2,4 1,2 1,5 0,9 -1,3 -1,5 -1,6l0 0c0,0 0,0 0,0 0,-1 1,-1 1,-2 2,-3 5,-10 5,-15l0 -2c0,-3 0,-4 1,-3 1,0 1,0 1,1 1,1 2,4 5,6 1,2 3,3 3,3 0,-1 -2,-3 -4,-5z"/>
    <path class="fil3" d="M7261 1051c0,0 2,8 7,14 2,3 4,5 4,7 1,0 1,1 0,2 0,1 -1,1 -2,0 -1,0 -3,-1 -5,-3 -1,-1 -2,-3 -3,-4l0 0c0,5 -3,12 -5,16 0,1 -1,2 -2,2 -1,1 -3,1 -3,-1 0,-1 0,-3 1,-6 0,-4 1,-7 0,-9 0,-1 0,-2 -1,-2l0 0c-1,-1 -1,-1 -2,-1 -1,0 -2,1 -3,1 -2,1 -5,0 -8,-1 0,-1 -1,-2 -2,-2 0,-1 0,-2 1,-3l0 0c0,-1 2,-2 5,-2 8,-1 9,-6 9,-6l0 -1 1 0 5 -3 2 0 1 2zm5 16l0 0c-5,-6 -7,-13 -7,-15l-5 1c-1,2 -2,7 -11,8 -2,0 -3,0 -4,1 0,0 0,0 0,1 1,0 1,1 2,1 1,1 4,2 5,1 1,0 3,-1 4,-1 1,0 2,0 3,1 1,1 2,2 2,4 1,2 1,5 0,9 -1,3 -1,5 -1,6l0 0c0,0 0,0 0,0 0,-1 1,-1 1,-2 2,-3 5,-10 5,-15l0 -2c0,-3 0,-4 1,-3 1,0 1,0 1,1 1,1 2,4 5,6 2,2 3,3 3,3 0,-1 -2,-3 -4,-5z"/>
   </g>
   <g>
    <g>
     <polygon class="fil4" points="8124,0 8133,0 8133,1 8124,1 "/>
     <polygon class="fil4" points="8124,9103 8133,9103 8133,9133 8124,9133 "/>
     <polygon class="fil4" points="16252,96 16213,96 16213,86 16252,86 "/>
     <polygon class="fil4" points="16141,0 16141,30 16128,30 16128,0 "/>
     <polygon class="fil4" points="16128,9133 16128,9103 16141,9103 16141,9133 "/>
     <polygon class="fil4" points="16252,9046 16213,9046 16213,9036 16252,9036 "/>
     <g style="clip-path:url(#id1)">
      <image x="8124" y="0" width="8128" height="9133" xlink:href="Moh3_Images\Moh3_ImgID2.png"/>
     </g>
     <path class="fil5" d="M9196 4008c147,0 225,-59 225,-179l0 -292 -366 0 0 101 202 0 0 198c0,45 -25,68 -73,68 -38,0 -70,-17 -101,-48l-90 84c45,44 118,68 203,68zm748 -9l172 0 -258 -462 -163 0 -258 462 169 0 46 -90 247 0 45 90zm-244 -186l75 -148 75 148 -150 0zm459 186l444 0 0 -104 -278 0 0 -358 -166 0 0 462zm501 0l276 0c194,0 327,-89 327,-231 0,-142 -133,-231 -327,-231l-276 0 0 462zm165 -105l0 -253 105 0c99,0 166,47 166,127 0,80 -67,126 -166,126l-105 0zm511 105l165 0 0 -462 -165 0 0 462zm325 6c55,0 96,-31 96,-75 0,-45 -41,-74 -96,-74 -53,0 -95,29 -95,74 0,44 42,75 95,75z"/>
     <path class="fil5" d="M9359 3370c108,0 195,-31 251,-87l-105 -75c-36,35 -81,54 -137,54 -96,0 -163,-53 -163,-132 0,-79 67,-132 163,-132 56,0 101,19 137,54l105 -75c-56,-56 -143,-87 -251,-87 -185,0 -321,99 -321,240 0,140 136,240 321,240zm594 0c187,0 325,-102 325,-240 0,-139 -138,-240 -325,-240 -187,0 -325,101 -325,240 0,138 138,240 325,240zm0 -108c-88,0 -158,-52 -158,-132 0,-80 70,-132 158,-132 89,0 158,52 158,132 0,80 -69,132 -158,132zm704 108c187,0 325,-102 325,-240 0,-139 -138,-240 -325,-240 -187,0 -324,101 -324,240 0,138 137,240 324,240zm0 -108c-88,0 -158,-52 -158,-132 0,-80 70,-132 158,-132 89,0 158,52 158,132 0,80 -69,132 -158,132zm788 99l192 0 -251 -258 239 -204 -182 0 -226 192 0 -192 -164 0 0 462 164 0 0 -116 62 -52 166 168z"/>
     <path class="fil5" d="M9459 2261l0 173 -226 0 0 -173 -165 0 0 462 165 0 0 -180 226 0 0 180 165 0 0 -462 -165 0zm407 361l0 -85 259 0 0 -97 -259 0 0 -78 294 0 0 -101 -458 0 0 462 469 0 0 -101 -305 0zm863 101l172 0 -259 -462 -162 0 -258 462 168 0 46 -90 247 0 46 90zm-244 -186l75 -148 75 148 -150 0zm467 186l444 0 0 -104 -279 0 0 -358 -165 0 0 462zm541 0l165 0 0 -359 179 0 0 -103 -523 0 0 103 179 0 0 359zm798 -462l0 173 -225 0 0 -173 -165 0 0 462 165 0 0 -180 225 0 0 180 165 0 0 -462 -165 0zm842 0l-160 0 -139 183 -138 -183 -175 0 223 294 0 168 166 0 0 -166 223 -296zm-47 467c54,0 95,-31 95,-74 0,-45 -41,-74 -95,-74 -54,0 -96,29 -96,74 0,43 42,74 96,74z"/>
     <path class="fil5" d="M9359 2094c108,0 195,-31 251,-87l-105 -76c-36,35 -81,55 -137,55 -96,0 -163,-53 -163,-132 0,-79 67,-132 163,-132 56,0 101,19 137,54l105 -75c-56,-56 -143,-87 -251,-87 -185,0 -321,99 -321,240 0,140 136,240 321,240zm594 0c187,0 325,-102 325,-240 0,-139 -138,-240 -325,-240 -187,0 -325,101 -325,240 0,138 138,240 325,240zm0 -108c-88,0 -158,-53 -158,-132 0,-80 70,-132 158,-132 89,0 158,52 158,132 0,79 -69,132 -158,132zm704 108c187,0 325,-102 325,-240 0,-139 -138,-240 -325,-240 -187,0 -324,101 -324,240 0,138 137,240 324,240zm0 -108c-88,0 -158,-53 -158,-132 0,-80 70,-132 158,-132 89,0 158,52 158,132 0,79 -69,132 -158,132zm788 98l192 0 -251 -257 239 -204 -182 0 -226 192 0 -192 -164 0 0 461 164 0 0 -115 62 -52 166 167z"/>
     <polygon class="fil6" points="9015,1191 9028,1191 9028,1098 9015,1098 "/>
     <polygon class="fil6" points="9063,1102 9063,1191 9077,1191 9077,1124 9111,1194 9121,1191 9121,1098 9108,1098 9108,1163 9074,1094 "/>
     <polygon class="fil6" points="9154,1098 9149,1107 9162,1107 9162,1191 9175,1191 9175,1107 9185,1107 9190,1098 "/>
     <polygon class="fil6" points="9224,1098 9224,1144 9218,1144 9214,1154 9224,1154 9224,1191 9267,1191 9267,1182 9239,1182 9239,1154 9266,1154 9266,1144 9239,1144 9239,1107 9267,1107 9263,1097 "/>
     <polygon class="fil6" points="9299,1098 9299,1192 9340,1192 9335,1182 9313,1182 9313,1098 "/>
     <polygon class="fil6" points="9368,1098 9368,1192 9408,1192 9404,1182 9381,1182 9381,1098 "/>
     <polygon class="fil6" points="9439,1191 9453,1191 9453,1098 9439,1098 "/>
     <path class="fil6" d="M9509 1107c13,-5 19,4 19,4l6 -10c-15,-10 -42,-6 -47,16 -4,24 -2,47 -1,50 0,3 1,9 5,15 4,5 10,10 19,11 18,2 23,-5 23,-5l0 -44 -19 0 -5 10 10 0 0 29c-21,2 -20,-19 -20,-19l0 -33c0,0 -2,-20 10,-24z"/>
     <polygon class="fil6" points="9569,1144 9564,1144 9559,1153 9569,1153 9569,1191 9610,1191 9610,1182 9584,1182 9584,1153 9610,1153 9610,1144 9584,1144 9584,1107 9612,1107 9608,1098 9569,1098 "/>
     <polygon class="fil6" points="9641,1102 9641,1192 9655,1192 9655,1124 9690,1194 9700,1191 9700,1098 9687,1098 9687,1164 9653,1094 "/>
     <polygon class="fil6" points="9733,1098 9728,1107 9741,1107 9741,1191 9754,1191 9754,1107 9764,1107 9769,1098 "/>
     <path class="fil6" d="M9902 1108c14,-4 20,4 20,4l6 -10c-16,-9 -43,-5 -47,16 -4,21 -1,44 -1,48 1,5 6,24 24,25 14,2 24,-4 24,-4l-6 -12c-3,6 -10,7 -10,7 -19,3 -20,-19 -20,-19l0 -32c0,0 -1,-19 10,-23z"/>
     <polygon class="fil6" points="10133,1191 10146,1191 10146,1098 10133,1098 "/>
     <polygon class="fil6" points="10148,1149 10179,1194 10191,1189 10161,1148 10189,1098 10179,1095 "/>
     <polygon class="fil6" points="10267,1163 10251,1107 10238,1163 10223,1097 10209,1098 10232,1186 10242,1194 10253,1144 10261,1186 10273,1194 10292,1098 10279,1096 "/>
     <polygon class="fil6" points="10330,1103 10304,1191 10318,1193 10335,1124 10353,1193 10366,1191 10341,1095 "/>
     <polygon class="fil6" points="10335,1189 10348,1177 10324,1177 "/>
     <path class="fil6" d="M10440 1120c-2,-25 -28,-22 -28,-22l-20 0 -1 93c4,0 14,0 14,0l0 -84c23,-3 22,18 20,28 -2,10 -18,10 -18,10l23 48 11 -3 -18 -37c0,0 19,-2 17,-33z"/>
     <polygon class="fil6" points="10472,1098 10472,1144 10466,1144 10461,1153 10472,1153 10472,1191 10515,1191 10515,1182 10486,1182 10486,1153 10514,1153 10514,1144 10486,1144 10486,1107 10515,1107 10511,1098 "/>
     <path class="fil6" d="M10003 1141c0,15 0,42 -19,41 -19,-1 -16,-38 -15,-57 2,-18 15,-19 15,-19 16,-1 19,20 19,35zm-18 -44c0,0 -23,-1 -28,21 -5,23 -7,74 27,73 36,2 32,-46 32,-46 0,0 3,-49 -31,-48z"/>
     <path class="fil6" d="M10092 1141c-1,15 0,42 -19,41 -19,-1 -17,-38 -15,-57 1,-18 15,-19 15,-19 15,-1 19,20 19,35zm-18 -44c0,0 -23,-1 -28,21 -6,23 -8,74 27,73 36,2 32,-46 32,-46 0,0 4,-49 -31,-48z"/>
     <path class="fil6" d="M9268 815c0,0 -82,150 -83,151 -2,2 -85,-151 -88,-151l-87 0c0,0 126,222 130,222l90 0c0,0 128,-222 124,-222l-86 0z"/>
     <path class="fil6" d="M9479 1037c0,-4 1,-222 1,-222l83 0c2,2 157,136 157,134 0,-3 0,-134 0,-134l82 0 0 222 -82 0c0,0 -157,-137 -157,-134l0 134 -84 0z"/>
     <polygon class="fil6" points="9455,1037 9369,1037 9369,815 9455,815 "/>
     <path class="fil6" d="M10376 989l-94 0c-1,0 -4,0 -7,0l0 -125 83 0c5,0 70,-4 77,56 0,0 10,69 -59,69zm-5 -174c0,0 -10,0 -25,0l-1 0 -156 0 0 22 0 0c0,41 0,138 0,178l0 0 0 22 45 0 162 0c0,0 125,2 124,-113 -1,-115 -149,-109 -149,-109z"/>
     <path class="fil6" d="M9994 997c-51,0 -93,-32 -93,-72 0,-40 42,-72 93,-72 51,0 93,32 93,72 0,40 -42,72 -93,72zm1 -193c-110,0 -183,54 -183,121 0,67 77,121 183,121 108,0 186,-55 183,-121 -2,-67 -60,-121 -183,-121z"/>
     <path class="fil7" d="M12717 4887l39 -30c18,-13 21,-22 21,-32 0,-17 -17,-28 -44,-28 -20,0 -37,6 -47,15l13 9c8,-8 19,-11 33,-11 18,0 27,6 27,17 0,6 -3,12 -16,23l-52 40 0 9 92 0 0 -12 -66 0zm219 14c30,0 52,-19 52,-52 0,-33 -22,-52 -52,-52 -30,0 -52,19 -52,52 0,33 22,52 52,52zm0 -13c-20,0 -34,-13 -34,-39 0,-26 14,-39 34,-39 20,0 34,13 34,39 0,26 -14,39 -34,39zm180 -1l39 -30c17,-13 21,-22 21,-32 0,-17 -17,-28 -44,-28 -20,0 -37,6 -47,15l13 9c8,-8 19,-11 32,-11 18,0 28,6 28,17 0,6 -3,12 -16,23l-53 40 0 9 93 0 0 -12 -66 0zm209 -49l-14 0 3 -27 57 0 0 -13 -72 0 -7 53 29 0c30,0 39,7 39,19 0,11 -11,18 -31,18 -15,0 -29,-5 -38,-11l-8 11c11,8 29,13 47,13 32,0 48,-15 48,-32 0,-18 -15,-31 -53,-31zm159 16l49 0 0 -12 -49 0 0 12zm170 33l39 -30c18,-13 21,-22 21,-32 0,-17 -17,-28 -43,-28 -20,0 -37,6 -47,15l12 9c8,-8 19,-11 33,-11 18,0 27,6 27,17 0,6 -2,12 -16,23l-52 40 0 9 92 0 0 -12 -66 0zm222 -49c-16,0 -29,5 -37,13 0,-1 0,-2 0,-3 0,-26 17,-39 43,-39 9,0 18,2 24,5l7 -11c-8,-4 -19,-6 -32,-6 -35,0 -60,18 -60,53 0,32 19,51 54,51 25,0 45,-13 45,-32 0,-19 -18,-31 -44,-31zm-2 51c-20,0 -30,-9 -30,-20 0,-11 12,-19 29,-19 18,0 29,7 29,19 0,12 -11,20 -28,20z"/>
     <path class="fil7" d="M12760 4677c20,0 38,-5 49,-16l-12 -9c-10,8 -22,12 -36,12 -29,0 -50,-16 -50,-39 0,-22 21,-38 50,-38 14,0 26,3 36,12l12 -10c-11,-10 -29,-15 -48,-15 -39,0 -68,21 -68,51 0,30 29,52 67,52zm261 -1l19 0 -58 -101 -18 0 -58 101 18 0 15 -25 68 0 14 25zm-76 -37l28 -49 27 49 -55 0zm214 37l18 0 0 -89 44 0 0 -12 -106 0 0 12 44 0 0 89zm251 0l20 0 -58 -101 -19 0 -58 101 19 0 14 -25 68 0 14 25zm-75 -37l27 -49 28 49 -55 0zm201 37l87 0 0 -13 -69 0 0 -88 -18 0 0 101zm248 1c39,0 68,-22 68,-52 0,-29 -29,-51 -68,-51 -39,0 -68,22 -68,51 0,30 29,52 68,52zm0 -13c-28,0 -50,-16 -50,-39 0,-22 22,-38 50,-38 29,0 50,16 50,38 0,23 -21,39 -50,39zm273 -6c-9,4 -19,6 -30,6 -30,0 -51,-16 -51,-39 0,-22 21,-38 51,-38 14,0 26,3 37,11l11 -9c-11,-10 -29,-15 -49,-15 -40,0 -68,21 -68,51 0,30 28,52 68,52 18,0 35,-4 48,-13l0 -39 -17 0 0 33zm190 19c34,0 54,-15 54,-45l0 -57 -18 0 0 57c0,22 -13,32 -36,32 -23,0 -36,-10 -36,-32l0 -57 -18 0 0 57c0,30 20,45 54,45zm195 -14l0 -32 65 0 0 -13 -65 0 0 -31 73 0 0 -12 -91 0 0 101 93 0 0 -13 -75 0z"/>
    </g>
    <rect class="fil8" x="12675" y="4560" width="1845" height="346"/>
   </g>
  </g>
 </g>
</svg>
